<?xml version="1.0" encoding="utf-8"?>
<!-- Generator: Adobe Illustrator 27.5.0, SVG Export Plug-In . SVG Version: 6.00 Build 0)  -->
<svg version="1.1" xmlns="http://www.w3.org/2000/svg" xmlns:xlink="http://www.w3.org/1999/xlink" x="0px" y="0px"
	 viewBox="0 0 3710 3710" style="enable-background:new 0 0 3710 3710;" xml:space="preserve">
<g id="Background">
	<g>
		<g>
			<rect style="fill:#FFFFFF;" width="3710" height="3710"/>
		</g>
	</g>
</g>
<g id="Illustration">
	<g>
		<path style="fill:#F4F7FA;" d="M3039.184,2777.842c-146.807,199.264-332.337,289.548-434.043,337.588
			c-585.61,276.605-1430.734,145.716-1866.281-425.255c-60.399-79.179-288.365-396.816-277.305-847.988
			c14.957-610.074,462.113-1266.643,1122.613-1372.676C2240.826,364.096,2724.31,864.48,2808.766,955.941
			C3262.14,1446.919,3409.586,2275.094,3039.184,2777.842z"/>
		<g>
			
				<linearGradient id="SVGID_1_" gradientUnits="userSpaceOnUse" x1="-3682.9463" y1="-1363.1625" x2="-2767.2505" y2="-1363.1625" gradientTransform="matrix(-1.1645 0.5614 0.4343 0.9008 -1599.624 5804.2427)">
				<stop  offset="0" style="stop-color:#AA80F9"/>
				<stop  offset="0.9964" style="stop-color:#6165D7"/>
			</linearGradient>
			<polygon style="fill:url(#SVGID_1_);" points="995.295,2949.092 2061.6,2434.978 2132.669,2582.38 1066.363,3096.493 			"/>
			
				<linearGradient id="SVGID_00000062181187717940403150000004418028124852125113_" gradientUnits="userSpaceOnUse" x1="-3682.9468" y1="-1363.1427" x2="-2767.2505" y2="-1363.1427" gradientTransform="matrix(-1.1645 0.5614 0.4343 0.9008 -1599.624 5804.2427)">
				<stop  offset="0" style="stop-color:#AA80F9"/>
				<stop  offset="0.9964" style="stop-color:#6165D7"/>
			</linearGradient>
			<path style="opacity:0.6;fill:url(#SVGID_00000062181187717940403150000004418028124852125113_);" d="M995.295,2949.092
				l179.441-86.517c37.936,16.383,94.911,33.531,155.447,17.851c70.585-18.284,93.444-67.579,164.902-111.552
				c76.084-46.819,141.741-47.281,219.709-57.593c99.143-13.112,240.086-45.045,417.875-128.902
				c-355.435,171.371-710.87,342.743-1066.306,514.114L995.295,2949.092z"/>
		</g>
		<g>
			
				<linearGradient id="SVGID_00000011712719175211154000000002076367119764839302_" gradientUnits="userSpaceOnUse" x1="1111.1837" y1="1389.1207" x2="332.2461" y2="2620.0364">
				<stop  offset="0" style="stop-color:#AA80F9"/>
				<stop  offset="0.9964" style="stop-color:#6165D7"/>
			</linearGradient>
			<polygon style="opacity:0.15;fill:url(#SVGID_00000011712719175211154000000002076367119764839302_);" points="1128.296,1286.05 
				795.156,1282.023 624.455,1629.687 795.156,1975.745 1128.296,1968.581 1290.866,1626.55 			"/>
			
				<linearGradient id="SVGID_00000111191908831931809330000000274788068364202167_" gradientUnits="userSpaceOnUse" x1="624.4551" y1="2415.5869" x2="1290.8665" y2="2415.5869">
				<stop  offset="0" style="stop-color:#AA80F9"/>
				<stop  offset="0.9964" style="stop-color:#6165D7"/>
			</linearGradient>
			<polygon style="opacity:0.47;fill:url(#SVGID_00000111191908831931809330000000274788068364202167_);" points="
				1128.296,2064.358 795.156,2073.093 624.455,2427.297 795.156,2766.815 1128.296,2746.888 1290.866,2398.63 			"/>
			
				<linearGradient id="SVGID_00000175287127648422676760000011319618279375060653_" gradientUnits="userSpaceOnUse" x1="1185.6292" y1="1258.3429" x2="1817.1439" y2="1258.3429">
				<stop  offset="0" style="stop-color:#FF9085"/>
				<stop  offset="1" style="stop-color:#FB6FBB"/>
			</linearGradient>
			<polygon style="opacity:0.5;fill:url(#SVGID_00000175287127648422676760000011319618279375060653_);" points="1662.985,930.354 
				1347.287,920.756 1185.629,1256.145 1347.287,1595.929 1662.985,1594.92 1817.144,1264.733 			"/>
			
				<linearGradient id="SVGID_00000140726435748687579010000018028030555050124714_" gradientUnits="userSpaceOnUse" x1="1718.9526" y1="1430.1121" x2="2546.4854" y2="1430.1121">
				<stop  offset="0" style="stop-color:#FF9085"/>
				<stop  offset="1" style="stop-color:#FB6FBB"/>
			</linearGradient>
			<polygon style="opacity:0.5;fill:url(#SVGID_00000140726435748687579010000018028030555050124714_);" points="1872.243,1265.483 
				1718.953,1594.741 2403.613,1592.552 2546.485,1274.654 			"/>
			<polygon style="fill:#FFFFFF;" points="1346.642,2396.23 1184.974,2743.498 2331.364,2674.925 2475.318,2347.677 			"/>
			
				<linearGradient id="SVGID_00000026140416829055481310000010969269242753860019_" gradientUnits="userSpaceOnUse" x1="1185.6292" y1="2010.5847" x2="1817.1439" y2="2010.5847">
				<stop  offset="0" style="stop-color:#FF9085"/>
				<stop  offset="1" style="stop-color:#FB6FBB"/>
			</linearGradient>
			<polygon style="opacity:0.5;fill:url(#SVGID_00000026140416829055481310000010969269242753860019_);" points="1662.985,1671.879 
				1347.287,1674.117 1185.629,2015.565 1347.287,2349.29 1662.985,2336.446 1817.144,2000.48 			"/>
			
				<linearGradient id="SVGID_00000158024942415987119270000014455646352965088901_" gradientUnits="userSpaceOnUse" x1="2819.2117" y1="385.2855" x2="1246.9095" y2="1385.406">
				<stop  offset="0" style="stop-color:#AA80F9"/>
				<stop  offset="0.9964" style="stop-color:#6165D7"/>
			</linearGradient>
			<polygon style="opacity:0.15;fill:url(#SVGID_00000158024942415987119270000014455646352965088901_);" points="2170.251,577.021 
				1870.66,562.182 1717.344,885.958 1870.66,1219.771 2170.251,1224.545 2316.634,905.575 			"/>
			
				<linearGradient id="SVGID_00000168095705201007671360000015158194202199414418_" gradientUnits="userSpaceOnUse" x1="2637.2002" y1="798.7101" x2="1703.0745" y2="1392.8953">
				<stop  offset="0" style="stop-color:#AA80F9"/>
				<stop  offset="0.9964" style="stop-color:#6165D7"/>
			</linearGradient>
			<polygon style="opacity:0.15;fill:url(#SVGID_00000168095705201007671360000015158194202199414418_);" points="2721.753,610.793 
				2235.47,579.515 2381.092,907.198 2235.47,1225.348 2721.753,1219.658 2851.237,919.465 			"/>
			
				<linearGradient id="SVGID_00000018954795710270595630000002492716903878454149_" gradientUnits="userSpaceOnUse" x1="1717.3444" y1="1997.8879" x2="3010.2295" y2="1997.8879">
				<stop  offset="0" style="stop-color:#AA80F9"/>
				<stop  offset="0.9964" style="stop-color:#6165D7"/>
			</linearGradient>
			<polygon style="opacity:0.15;fill:url(#SVGID_00000018954795710270595630000002492716903878454149_);" points="2874.31,1662.444 
				1717.344,1670.591 1870.66,1998.306 1717.344,2333.332 2874.31,2286.314 3010.229,1971.139 			"/>
		</g>
		<g>
			
				<linearGradient id="SVGID_00000101084314097925549740000002844360623649993636_" gradientUnits="userSpaceOnUse" x1="-986.951" y1="-778.2787" x2="-71.2809" y2="-778.2787" gradientTransform="matrix(0.8346 -0.9873 0.7637 0.6456 3703.9995 1674.675)">
				<stop  offset="0" style="stop-color:#AA80F9"/>
				<stop  offset="0.9964" style="stop-color:#6165D7"/>
			</linearGradient>
			<polygon style="fill:url(#SVGID_00000101084314097925549740000002844360623649993636_);" points="2987.657,1189.776 
				2223.429,2093.809 2348.399,2199.452 3112.627,1295.42 			"/>
			
				<linearGradient id="SVGID_00000016770757432340008460000008376261541624167325_" gradientUnits="userSpaceOnUse" x1="-986.9513" y1="-778.2731" x2="-71.281" y2="-778.2731" gradientTransform="matrix(0.8346 -0.9873 0.7637 0.6456 3703.9995 1674.675)">
				<stop  offset="0" style="stop-color:#AA80F9"/>
				<stop  offset="0.9964" style="stop-color:#6165D7"/>
			</linearGradient>
			<path style="opacity:0.6;fill:url(#SVGID_00000016770757432340008460000008376261541624167325_);" d="M2987.657,1189.776
				L2859.05,1341.91c6.385,40.826,8.754,100.278-21.554,154.977c-35.34,63.778-88.783,73.596-149.215,131.8
				c-64.344,61.973-81.196,125.432-110.662,198.35c-37.467,92.722-103.603,221.217-229.221,372.415
				c254.743-301.344,509.486-602.688,764.229-904.032L2987.657,1189.776z"/>
		</g>
		<g>
			
				<linearGradient id="SVGID_00000080927115561905161730000008917990146485966514_" gradientUnits="userSpaceOnUse" x1="-878.6547" y1="-1200.9943" x2="-923.3604" y2="-596.4945" gradientTransform="matrix(0.692 -0.7219 0.7219 0.692 4132.3721 1085.7806)">
				<stop  offset="0" style="stop-color:#AA80F9"/>
				<stop  offset="0.9964" style="stop-color:#6165D7"/>
			</linearGradient>
			<path style="fill:url(#SVGID_00000080927115561905161730000008917990146485966514_);" d="M3129.931,1296.536l-77.377,80.714
				c-7.378,7.696-19.597,7.954-27.293,0.576l-422.01-404.564l104.094-108.583l422.01,404.564
				C3137.051,1276.62,3137.309,1288.84,3129.931,1296.536z"/>
			
				<linearGradient id="SVGID_00000032648449108726353320000014884779376796708490_" gradientUnits="userSpaceOnUse" x1="-898.3993" y1="-703.2144" x2="-905.0661" y2="-613.0672" gradientTransform="matrix(0.692 -0.7219 0.7219 0.692 4132.3721 1085.7806)">
				<stop  offset="0" style="stop-color:#444B8C"/>
				<stop  offset="0.9964" style="stop-color:#26264F"/>
			</linearGradient>
			<path style="fill:url(#SVGID_00000032648449108726353320000014884779376796708490_);" d="M3064.537,1248.683
				c18.018,17.273,18.622,45.883,1.348,63.901c-17.273,18.018-45.883,18.622-63.9,1.349c-18.018-17.273-18.622-45.882-1.349-63.901
				C3017.91,1232.014,3046.519,1231.41,3064.537,1248.683z"/>
		</g>
		<g>
			<g>
				<path style="fill:#97A6B7;" d="M2295.553,1087.879l50.464,83.899c7.009,11.653,31.835,13.265,40.88,3.11l196.38-230.158
					c18.811-20.812,19.42-52.3,1.429-73.825l-12.297-14.712c-18.334-21.934-51.608-23.217-71.576-2.759l-202.516,210.046
					C2291.982,1070.052,2290.848,1080.057,2295.553,1087.879z"/>
				
					<linearGradient id="SVGID_00000123413348071002766650000015956723014602581433_" gradientUnits="userSpaceOnUse" x1="1626.8624" y1="880.8782" x2="1951.9338" y2="880.8782" gradientTransform="matrix(0.9918 -0.128 0.128 0.9918 572.5021 364.1155)">
					<stop  offset="0.0036" style="stop-color:#EBEFF2"/>
					<stop  offset="1" style="stop-color:#FFFFFF"/>
				</linearGradient>
				<path style="fill:url(#SVGID_00000123413348071002766650000015956723014602581433_);" d="M2307.815,1086.296l50.463,83.899
					c7.01,11.653,23.306,13.174,32.35,3.019l204.911-230.067c18.811-20.812,19.42-52.3,1.428-73.825l-12.297-14.711
					c-18.334-21.934-51.607-23.217-71.575-2.759l-202.516,210.046C2304.244,1068.469,2303.111,1078.475,2307.815,1086.296z"/>
				<path style="fill:#D8DEE8;" d="M2592.961,915.37c-6.353,27.675-30.515,45.746-53.969,40.363
					c-23.453-5.384-37.317-32.183-30.964-59.858c6.352-27.675,30.515-45.746,53.969-40.363
					C2585.451,860.896,2599.314,887.695,2592.961,915.37z"/>
				
					<linearGradient id="SVGID_00000010272137047408098280000002569167793582241931_" gradientUnits="userSpaceOnUse" x1="1865.8917" y1="881.0721" x2="2206.3733" y2="881.0721" gradientTransform="matrix(0.9918 -0.128 0.128 0.9918 572.5021 364.1155)">
					<stop  offset="0" style="stop-color:#D8DEE8"/>
					<stop  offset="0.9964" style="stop-color:#97A6B7"/>
				</linearGradient>
				<path style="fill:url(#SVGID_00000010272137047408098280000002569167793582241931_);" d="M2803.7,1128.278l73.668-108.938
					c4.641-6.864,3.849-16.039-1.901-22.005l-134.504-139.57c-2.409-2.5-5.505-4.229-8.897-4.968l-137.325-29.937
					c-6.907-1.506-14.044,1.281-18.103,7.069l-48.966,69.822c-4.453,6.35-4.209,14.87,0.599,20.955l123.223,155.918
					c1.822,2.306,4.194,4.117,6.898,5.267l123.905,52.704C2790.024,1137.882,2798.996,1135.234,2803.7,1128.278z"/>
				
					<linearGradient id="SVGID_00000031925240734222997020000006059285110572495289_" gradientUnits="userSpaceOnUse" x1="2008.2008" y1="898.3166" x2="2192.7385" y2="898.3166" gradientTransform="matrix(0.9918 -0.128 0.128 0.9918 572.5021 364.1155)">
					<stop  offset="0" style="stop-color:#D8DEE8"/>
					<stop  offset="0.9964" style="stop-color:#97A6B7"/>
				</linearGradient>
				<path style="fill:url(#SVGID_00000031925240734222997020000006059285110572495289_);" d="M2719.154,877.065l-43.871,55.412
					c-4.085,5.159-4.291,12.396-0.49,17.767c19.737,27.897,81.541,110.666,108.329,146.468c6.255,8.359,18.804,8.265,24.941-0.182
					c15.985-22.002,43.286-59.586,55.938-77.054c4.233-5.844,3.641-13.874-1.392-19.045l-121.185-124.506
					C2735.177,869.509,2724.713,870.044,2719.154,877.065z"/>
				<path style="fill:#D8DEE8;" d="M2319.196,1092.476l113.227-113.053c8.05-8.038,19.827-11.076,30.76-7.937l144.788,41.569
					c11.789,3.385,20.417,13.481,21.924,25.653l13.021,105.228l-122.171,98.666c-7.321,5.912-17.079,7.851-26.104,5.186
					l-155.025-45.774c-11.801-3.485-20.433-13.608-22.008-25.811l-7.407-57.376
					C2308.95,1109.124,2312.273,1099.389,2319.196,1092.476z"/>
				
					<linearGradient id="SVGID_00000025444443387937822530000006770224220025617591_" gradientUnits="userSpaceOnUse" x1="1643.687" y1="1036.7429" x2="1806.0697" y2="1036.7429" gradientTransform="matrix(0.9918 -0.128 0.128 0.9918 572.5021 364.1155)">
					<stop  offset="0.0036" style="stop-color:#EBEFF2"/>
					<stop  offset="1" style="stop-color:#FFFFFF"/>
				</linearGradient>
				<path style="fill:url(#SVGID_00000025444443387937822530000006770224220025617591_);" d="M2339.726,1110.63l148.531,36.255
					c4.197,1.024,7.236,4.662,7.498,8.974l4.075,67.07c0.412,6.776-5.993,11.929-12.524,10.076l-144.572-41.027
					c-3.795-1.077-6.583-4.312-7.089-8.224l-8.04-62.28C2326.721,1114.606,2333,1108.988,2339.726,1110.63z"/>
				<path style="fill:#97A6B7;" d="M2522.222,1139.968l50.464,83.899c7.009,11.653,31.835,13.265,40.879,3.11l196.381-230.158
					c18.811-20.812,19.42-52.3,1.429-73.825l-12.297-14.711c-18.334-21.934-51.607-23.217-71.575-2.759l-202.516,210.046
					C2518.651,1122.14,2517.517,1132.146,2522.222,1139.968z"/>
				
					<linearGradient id="SVGID_00000008139371530957744160000004197321207172677782_" gradientUnits="userSpaceOnUse" x1="1844.994" y1="961.5492" x2="2170.0652" y2="961.5492" gradientTransform="matrix(0.9918 -0.128 0.128 0.9918 572.5021 364.1155)">
					<stop  offset="0.0036" style="stop-color:#EBEFF2"/>
					<stop  offset="1" style="stop-color:#FFFFFF"/>
				</linearGradient>
				<path style="fill:url(#SVGID_00000008139371530957744160000004197321207172677782_);" d="M2534.484,1138.385l50.464,83.899
					c7.009,11.653,23.305,13.174,32.35,3.019l204.91-230.067c18.811-20.812,19.42-52.3,1.429-73.825L2811.34,906.7
					c-18.334-21.934-51.608-23.216-71.576-2.759l-202.516,210.046C2530.913,1120.557,2529.779,1130.563,2534.484,1138.385z"/>
				<path style="fill:#D8DEE8;" d="M2819.63,967.459c-6.353,27.675-30.515,45.746-53.969,40.363
					c-23.454-5.384-37.317-32.183-30.964-59.858c6.353-27.675,30.515-45.746,53.969-40.363S2825.983,939.784,2819.63,967.459z"/>
			</g>
			<g>
				
					<linearGradient id="SVGID_00000109015408008469059710000015353725448732034219_" gradientUnits="userSpaceOnUse" x1="357.5624" y1="-9192.0098" x2="262.0646" y2="-9042.1406" gradientTransform="matrix(-0.7292 -0.6843 0.6843 -0.7292 8897.9541 -5261.0503)">
					<stop  offset="0" style="stop-color:#AA80F9"/>
					<stop  offset="0.9964" style="stop-color:#6165D7"/>
				</linearGradient>
				<polygon style="fill:url(#SVGID_00000109015408008469059710000015353725448732034219_);" points="2377.51,1053.951 
					2532.799,1199.66 2421.84,1313.4 2266.551,1167.691 				"/>
				
					<linearGradient id="SVGID_00000050650943214109688880000002676347853975214772_" gradientUnits="userSpaceOnUse" x1="531.2755" y1="-9387.1416" x2="298.2178" y2="-9021.3945" gradientTransform="matrix(-0.7292 -0.6843 0.6843 -0.7292 8897.9541 -5261.0503)">
					<stop  offset="0" style="stop-color:#AA80F9"/>
					<stop  offset="0.9964" style="stop-color:#6165D7"/>
				</linearGradient>
				<path style="fill:url(#SVGID_00000050650943214109688880000002676347853975214772_);" d="M2377.757,1053.63
					c9.642-10.276,52.222,14.011,95.104,54.248c42.882,40.237,69.828,81.185,60.186,91.462
					c-9.642,10.276-52.221-14.011-95.103-54.248C2395.061,1104.855,2368.115,1063.906,2377.757,1053.63z"/>
				
					<linearGradient id="SVGID_00000023977955397177454670000005579924811004206984_" gradientUnits="userSpaceOnUse" x1="665.5569" y1="-9684.6787" x2="279.0802" y2="-9078.165" gradientTransform="matrix(-0.7292 -0.6843 0.6843 -0.7292 8897.9541 -5261.0503)">
					<stop  offset="0" style="stop-color:#AA80F9"/>
					<stop  offset="0.9964" style="stop-color:#6165D7"/>
				</linearGradient>
				<path style="opacity:0.6;fill:url(#SVGID_00000023977955397177454670000005579924811004206984_);" d="M2407.54,1291.352
					l83.607-84.59c10.03-10.69,10.871-27.066,1.942-38.692c-8.867-11.546-21.438-25.788-37.933-41.266
					c-16.495-15.478-31.51-27.119-43.594-35.233c-12.17-8.172-28.46-6.292-38.49,4.398l-83.607,84.59L2407.54,1291.352z"/>
				
					<linearGradient id="SVGID_00000012439073471790368310000015597259362485440129_" gradientUnits="userSpaceOnUse" x1="402.8181" y1="-9308.5684" x2="316.0612" y2="-9209.9033" gradientTransform="matrix(-0.7292 -0.6843 0.6843 -0.7292 8897.9541 -5261.0503)">
					<stop  offset="0" style="stop-color:#AA80F9"/>
					<stop  offset="0.9964" style="stop-color:#6165D7"/>
				</linearGradient>
				<path style="fill:url(#SVGID_00000012439073471790368310000015597259362485440129_);" d="M2266.551,1167.691
					c9.642-10.276,52.222,14.011,95.104,54.248c42.882,40.237,69.828,81.185,60.186,91.462
					c-9.642,10.276-52.221-14.011-95.104-54.248C2283.855,1218.916,2256.909,1177.967,2266.551,1167.691z"/>
				
					<linearGradient id="SVGID_00000136383902995398947610000010107016314294247858_" gradientUnits="userSpaceOnUse" x1="338.9832" y1="-9281.3779" x2="261.0113" y2="-9055.0693" gradientTransform="matrix(-0.7292 -0.6843 0.6843 -0.7292 8897.9541 -5261.0503)">
					<stop  offset="0" style="stop-color:#444B8C"/>
					<stop  offset="0.9964" style="stop-color:#26264F"/>
				</linearGradient>
				<path style="fill:url(#SVGID_00000136383902995398947610000010107016314294247858_);" d="M2244.927,1336.052
					c-2.5,3.126,7.279,12.302,10.24,9.608l110.229-73.854c3.38-3.075-6.169-17.158-21.2-31.261
					c-15.031-14.103-29.692-22.738-32.546-19.169L2244.927,1336.052z"/>
			</g>
		</g>
		<g>
			
				<linearGradient id="SVGID_00000113326086936680227530000002023581133389814458_" gradientUnits="userSpaceOnUse" x1="-1445.5778" y1="-1816.0959" x2="-529.8344" y2="-1816.0959" gradientTransform="matrix(-0.4589 -1.2085 -0.9349 0.355 -1216.1215 998.8267)">
				<stop  offset="0" style="stop-color:#AA80F9"/>
				<stop  offset="0.9964" style="stop-color:#6165D7"/>
			</linearGradient>
			<polygon style="fill:url(#SVGID_00000113326086936680227530000002023581133389814458_);" points="801.369,965.376 
				1221.622,2072.041 1068.641,2130.135 648.388,1023.47 			"/>
			
				<linearGradient id="SVGID_00000067935436915856887200000010973580720291322790_" gradientUnits="userSpaceOnUse" x1="-1445.5781" y1="-1816.0875" x2="-529.8344" y2="-1816.0875" gradientTransform="matrix(-0.4589 -1.2085 -0.9349 0.355 -1216.1215 998.8267)">
				<stop  offset="0" style="stop-color:#AA80F9"/>
				<stop  offset="0.9964" style="stop-color:#6165D7"/>
			</linearGradient>
			<path style="opacity:0.6;fill:url(#SVGID_00000067935436915856887200000010973580720291322790_);" d="M801.369,965.376
				l70.721,186.233c-19.593,36.382-41.59,91.666-31.189,153.329c12.129,71.898,59.27,98.924,96.917,173.907
				c40.084,79.838,34.883,145.29,38.433,223.857c4.514,99.904,24.175,243.076,92.389,427.434
				c-140.084-368.888-280.168-737.777-420.253-1106.665L801.369,965.376z"/>
		</g>
		<g>
			
				<linearGradient id="SVGID_00000051351248159706669530000015039088928189705141_" gradientUnits="userSpaceOnUse" x1="-1537.3168" y1="-2199.9729" x2="-1581.775" y2="-1598.8182" gradientTransform="matrix(-0.4127 -0.9109 -0.9109 0.4127 -1424.7917 300.6019)">
				<stop  offset="0" style="stop-color:#AA80F9"/>
				<stop  offset="0.9964" style="stop-color:#6165D7"/>
			</linearGradient>
			<path style="fill:url(#SVGID_00000051351248159706669530000015039088928189705141_);" d="M651.301,1062.036l6.939,15.313
				c15.227,33.606,54.813,48.505,88.419,33.278l489.23-221.67l-62.079-137.01l-489.23,221.67
				C650.973,988.843,636.074,1028.43,651.301,1062.036z"/>
			
				<linearGradient id="SVGID_00000145053826552191353510000014685668678489273753_" gradientUnits="userSpaceOnUse" x1="-1555.3708" y1="-1702.166" x2="-1562.0375" y2="-1612.0214" gradientTransform="matrix(-0.4127 -0.9109 -0.9109 0.4127 -1424.7917 300.6019)">
				<stop  offset="0" style="stop-color:#444B8C"/>
				<stop  offset="0.9964" style="stop-color:#26264F"/>
			</linearGradient>
			<circle style="fill:url(#SVGID_00000145053826552191353510000014685668678489273753_);" cx="727.932" cy="1036.543" r="45.195"/>
		</g>
		<g>
			<g>
				<path style="fill:#97A6B7;" d="M1487.987,1099.341l-75.483,62.353c-10.484,8.66-34.434,1.928-39.589-10.656l-108.705-282.349
					c-10.823-25.882-0.93-55.782,23.193-70.101l16.488-9.787c24.583-14.593,56.391-4.741,68.422,21.191l121.177,265.42
					C1497.281,1083.714,1495.025,1093.528,1487.987,1099.341z"/>
				
					<linearGradient id="SVGID_00000080172228827883634250000009453424597957715853_" gradientUnits="userSpaceOnUse" x1="489.0129" y1="515.6994" x2="814.1021" y2="515.6994" gradientTransform="matrix(-0.8928 -0.4504 -0.4504 0.8928 2173.2041 803.077)">
					<stop  offset="0.0036" style="stop-color:#EBEFF2"/>
					<stop  offset="1" style="stop-color:#FFFFFF"/>
				</linearGradient>
				<path style="fill:url(#SVGID_00000080172228827883634250000009453424597957715853_);" d="M1476.949,1093.772l-75.483,62.353
					c-10.484,8.66-26.359,4.678-31.514-7.906l-116.78-285.099c-10.823-25.882-0.93-55.782,23.193-70.101l16.488-9.787
					c24.583-14.592,56.39-4.741,68.422,21.191l121.177,265.42C1486.243,1078.145,1483.986,1087.959,1476.949,1093.772z"/>
				<path style="fill:#D8DEE8;" d="M1264.837,837.779c-3.208,28.213,13.573,53.289,37.482,56.007
					c23.909,2.719,45.893-17.948,49.101-46.161c3.208-28.213-13.573-53.288-37.483-56.007
					C1290.029,788.898,1268.045,809.565,1264.837,837.779z"/>
				
					<linearGradient id="SVGID_00000061441574875399018900000012376026365750082712_" gradientUnits="userSpaceOnUse" x1="728.0555" y1="515.8958" x2="1068.5521" y2="515.8958" gradientTransform="matrix(-0.8928 -0.4504 -0.4504 0.8928 2173.2041 803.077)">
					<stop  offset="0" style="stop-color:#D8DEE8"/>
					<stop  offset="0.9964" style="stop-color:#97A6B7"/>
				</linearGradient>
				<path style="fill:url(#SVGID_00000061441574875399018900000012376026365750082712_);" d="M995.309,968.525l-33.266-127.231
					c-2.096-8.016,1.702-16.406,9.108-20.122l173.251-86.922c3.103-1.557,6.598-2.158,10.042-1.728l139.468,17.415
					c7.015,0.876,12.819,5.877,14.724,12.685l22.971,82.129c2.089,7.469-0.973,15.423-7.531,19.563L1156.03,970.405
					c-2.485,1.569-5.324,2.488-8.257,2.674l-134.378,8.519C1005.015,982.129,997.432,976.649,995.309,968.525z"/>
				
					<linearGradient id="SVGID_00000086683475819471660290000018299903639110772914_" gradientUnits="userSpaceOnUse" x1="870.3711" y1="533.142" x2="1054.917" y2="533.142" gradientTransform="matrix(-0.8928 -0.4504 -0.4504 0.8928 2173.2041 803.077)">
					<stop  offset="0" style="stop-color:#D8DEE8"/>
					<stop  offset="0.9964" style="stop-color:#97A6B7"/>
				</linearGradient>
				<path style="fill:url(#SVGID_00000086683475819471660290000018299903639110772914_);" d="M1158.554,759.703l22.957,66.844
					c2.137,6.224-0.073,13.117-5.444,16.92c-27.888,19.749-113.691,77.267-150.857,102.128c-8.678,5.805-20.482,1.544-23.462-8.462
					c-7.762-26.064-21.017-70.587-27.143-91.267c-2.05-6.918,1.178-14.295,7.644-17.499l155.681-77.141
					C1145.954,747.25,1155.645,751.233,1158.554,759.703z"/>
				<path style="fill:#D8DEE8;" d="M1464.161,1095.817l-69.207-144.263c-4.92-10.257-15.017-17.037-26.373-17.711l-150.372-8.925
					c-12.243-0.726-23.738,5.927-29.204,16.907l-47.261,94.915l82.425,133.666c4.939,8.01,13.498,13.082,22.895,13.569
					l161.425,8.362c12.288,0.636,23.794-6.042,29.336-17.027l26.058-51.651C1468.29,1114.924,1468.393,1104.638,1464.161,1095.817z"
					/>
				
					<linearGradient id="SVGID_00000019680381226805758210000010998097453536288689_" gradientUnits="userSpaceOnUse" x1="505.8377" y1="671.5711" x2="668.2281" y2="671.5711" gradientTransform="matrix(-0.8928 -0.4504 -0.4504 0.8928 2173.2041 803.077)">
					<stop  offset="0.0036" style="stop-color:#EBEFF2"/>
					<stop  offset="1" style="stop-color:#FFFFFF"/>
				</linearGradient>
				<path style="fill:url(#SVGID_00000019680381226805758210000010998097453536288689_);" d="M1438.764,1106.113l-152.136-15.181
					c-4.298-0.429-8.374,1.992-10.055,5.971l-26.138,61.901c-2.641,6.255,1.686,13.243,8.463,13.666l149.988,9.364
					c3.938,0.246,7.643-1.878,9.42-5.4l28.285-56.065C1449.708,1114.188,1445.653,1106.801,1438.764,1106.113z"/>
				<path style="fill:#97A6B7;" d="M1256.894,1073.119l-75.483,62.353c-10.484,8.66-34.434,1.928-39.589-10.656l-108.704-282.349
					c-10.823-25.882-0.93-55.782,23.193-70.102l16.488-9.787c24.583-14.592,56.391-4.741,68.423,21.191l121.176,265.42
					C1266.188,1057.492,1263.931,1067.306,1256.894,1073.119z"/>
				
					<linearGradient id="SVGID_00000130614126748420058590000015134741045518367631_" gradientUnits="userSpaceOnUse" x1="707.1544" y1="596.3768" x2="1032.2434" y2="596.3768" gradientTransform="matrix(-0.8928 -0.4504 -0.4504 0.8928 2173.2041 803.077)">
					<stop  offset="0.0036" style="stop-color:#EBEFF2"/>
					<stop  offset="1" style="stop-color:#FFFFFF"/>
				</linearGradient>
				<path style="fill:url(#SVGID_00000130614126748420058590000015134741045518367631_);" d="M1245.855,1067.55l-75.483,62.353
					c-10.485,8.66-26.36,4.678-31.514-7.906l-116.779-285.1c-10.823-25.882-0.93-55.781,23.193-70.101l16.487-9.787
					c24.583-14.593,56.391-4.741,68.423,21.191l121.177,265.421C1255.149,1051.923,1252.892,1061.736,1245.855,1067.55z"/>
				<path style="fill:#D8DEE8;" d="M1033.743,811.556c-3.208,28.213,13.573,53.289,37.482,56.007
					c23.909,2.719,45.893-17.948,49.101-46.161c3.208-28.213-13.573-53.289-37.482-56.008
					C1058.935,762.676,1036.952,783.343,1033.743,811.556z"/>
			</g>
			<g>
				
					<linearGradient id="SVGID_00000023960067721643999920000012660718508678937497_" gradientUnits="userSpaceOnUse" x1="1363.8036" y1="-9837.8262" x2="1268.3051" y2="-9687.957" gradientTransform="matrix(0.9152 -0.4029 -0.4029 -0.9152 -3808.772 -7268.9092)">
					<stop  offset="0" style="stop-color:#AA80F9"/>
					<stop  offset="0.9964" style="stop-color:#6165D7"/>
				</linearGradient>
				<polygon style="fill:url(#SVGID_00000023960067721643999920000012660718508678937497_);" points="1421.97,1040.098 
					1227.075,1125.9 1293.915,1270.057 1488.81,1184.255 				"/>
				
					<linearGradient id="SVGID_00000101089624190409675830000015600635285771243427_" gradientUnits="userSpaceOnUse" x1="1537.4984" y1="-10032.9355" x2="1304.4543" y2="-9667.21" gradientTransform="matrix(0.9152 -0.4029 -0.4029 -0.9152 -3808.772 -7268.9092)">
					<stop  offset="0" style="stop-color:#AA80F9"/>
					<stop  offset="0.9964" style="stop-color:#6165D7"/>
				</linearGradient>
				<path style="fill:url(#SVGID_00000101089624190409675830000015600635285771243427_);" d="M1421.843,1039.713
					c-5.678-12.897-53.91-4.145-107.728,19.549c-53.819,23.694-92.844,53.356-87.167,66.253s53.91,4.145,107.728-19.549
					C1388.495,1082.272,1427.521,1052.61,1421.843,1039.713z"/>
				
					<linearGradient id="SVGID_00000158004087557041681340000016645317336014127272_" gradientUnits="userSpaceOnUse" x1="1671.8044" y1="-10330.5059" x2="1285.3199" y2="-9723.9795" gradientTransform="matrix(0.9152 -0.4029 -0.4029 -0.9152 -3808.772 -7268.9092)">
					<stop  offset="0" style="stop-color:#AA80F9"/>
					<stop  offset="0.9964" style="stop-color:#6165D7"/>
				</linearGradient>
				<path style="opacity:0.6;fill:url(#SVGID_00000158004087557041681340000016645317336014127272_);" d="M1314.731,1254.017
					l-50.733-107.572c-5.906-13.416-1.255-29.14,11.031-37.137c12.202-7.942,28.792-17.195,49.494-26.309
					c20.702-9.114,38.732-15.102,52.827-18.738c14.195-3.661,28.933,3.527,34.839,16.943l50.733,107.572L1314.731,1254.017z"/>
				
					<linearGradient id="SVGID_00000127762722625298495810000006211352413893835146_" gradientUnits="userSpaceOnUse" x1="1409.0624" y1="-9954.3848" x2="1322.3088" y2="-9855.7236" gradientTransform="matrix(0.9152 -0.4029 -0.4029 -0.9152 -3808.772 -7268.9092)">
					<stop  offset="0" style="stop-color:#AA80F9"/>
					<stop  offset="0.9964" style="stop-color:#6165D7"/>
				</linearGradient>
				<path style="fill:url(#SVGID_00000127762722625298495810000006211352413893835146_);" d="M1488.81,1184.255
					c-5.678-12.897-53.909-4.145-107.728,19.549c-53.819,23.694-92.844,53.356-87.167,66.254
					c5.678,12.897,53.909,4.145,107.728-19.549C1455.462,1226.814,1494.488,1197.152,1488.81,1184.255z"/>
				
					<linearGradient id="SVGID_00000164493160157357671740000011561442989348275896_" gradientUnits="userSpaceOnUse" x1="1345.2372" y1="-9927.2002" x2="1267.2616" y2="-9700.8818" gradientTransform="matrix(0.9152 -0.4029 -0.4029 -0.9152 -3808.772 -7268.9092)">
					<stop  offset="0" style="stop-color:#444B8C"/>
					<stop  offset="0.9964" style="stop-color:#26264F"/>
				</linearGradient>
				<path style="fill:url(#SVGID_00000164493160157357671740000011561442989348275896_);" d="M1453.238,1350.23
					c1.319,3.779-10.954,9.183-12.851,5.658l-79.411-106.296c-2.165-4.024,11.522-14.131,30.386-22.436
					c18.864-8.305,35.562-11.574,37.067-7.26L1453.238,1350.23z"/>
			</g>
		</g>
		<g>
			
				<linearGradient id="SVGID_00000116193353998818689470000003551866350843249811_" gradientUnits="userSpaceOnUse" x1="2116.0933" y1="2196.4949" x2="1218.0808" y2="3395.5747">
				<stop  offset="0" style="stop-color:#FFC444"/>
				<stop  offset="0.9964" style="stop-color:#F36F56"/>
			</linearGradient>
			<path style="opacity:0.95;fill:url(#SVGID_00000116193353998818689470000003551866350843249811_);" d="M3221.984,2851.562
				c-0.806-16.499-6.004-31.319-14.404-42.713c-4.686-6.937-10.565-12.768-17.523-16.996l-0.884,0.01
				c-0.005-0.004-0.01-0.007-0.015-0.01c0,0,33.948-117.737,7.217-258.769l0.739-0.892c-10.833-56.478-31.18-116.632-67.121-174.427
				c-0.137,0.027-0.275,0.039-0.414,0.056c-0.012-0.019-0.024-0.038-0.034-0.056c-20.889-33.566-46.699-66.284-79.128-97.02
				c0,0-140.201-140.673-397.444-177.256c0,0-213.223-187.473-408.331-311.74c-96.198-61.284-201.607-92.528-310.351-92.528
				h-713.185c-123.786,0-245.236,41.708-350.548,120.531l-185.76,138.804c0,0-44.357,31.973-89.568,108.531
				c-0.003,0.005-0.005,0.01-0.009,0.015c-0.024-0.003-0.047-0.005-0.069-0.007c-51.446,87.027-103.948,231.752-93.58,452.476
				l-4.339,10.561c-3.326,18.257-1.114,37.091,5.857,53.293c2.636,6.129,5.931,11.893,9.897,17.087l26.741,35.028
				c0-0.002,0-0.005,0-0.005l0.005,0.005c0.012-0.157,0.027-0.311,0.039-0.466c0.001,0.125-0.002,0.245,0,0.37h9.169
				c-0.239,6.083-0.384,12.24-0.384,18.493c0,115.637,41.684,211.46,92.201,213.874c0.453,0.022,0.897-0.019,1.347-0.012
				c103.752,13.85,137.38-1.639,140.144-2.151c0,0,0.458-0.056,0.458-0.061c27.28-6.09,50.74-42.352,63.908-94.485l524.375,117.473
				l0,0l35.783,8.022c13.015,93.982,51.656,165.719,98.036,177.384c0,0.008,0,0.017,0,0.025c0.106,0.013,0.204,0.026,0.311,0.041
				c3.49,0.856,7.018,1.416,10.589,1.576c0.449,0.02,0.892-0.02,1.34-0.012c127.861,16.077,168.994-1.906,172.401-2.5
				c0,0-0.107-0.066-0.107-0.071c29.676-6.239,55.248-39.758,71.736-89.139c0.154,0.092,0.315,0.182,0.472,0.274
				c2.526,1.533,5.777,3.173,10.044,4.844c16.253,6.639,44.976,13.628,94.928,15.272c43.622,2.712,104.651,3.451,190.544,0.374
				h550.388c20.49,39.851,47.092,66.23,76.577,72.278c0.002,0.018,0.002,0.042,0.003,0.061c0.272,0.024,0.529,0.042,0.801,0.068
				c4.027,0.774,8.101,1.222,12.228,1.222c0.485,0,0.963-0.066,1.447-0.078c153.385,12.049,203.942-11.187,208.176-12.07
				c0,0-0.622-0.076-0.622-0.081c25.925-6.3,49.329-28.36,68.146-61.399h146.978c55.738,0,97.356-58.834,97.356-126.247v-5.564
				c0-0.438,0.157-0.865,0.361-1.293H3221.984z M661.461,2435.385c-5.042,0.063-9.681,0.166-13.819,0.288l0.899-2.758
				C652.919,2433.225,657.231,2434.036,661.461,2435.385z"/>
			<path style="fill:#FFFFFF;" d="M1176.611,1677.567c132.645-3.403,265.299-5.652,397.983-6.989l99.517-0.887l99.537-0.101
				c33.182,0.071,66.369,0.252,99.571,0.669c33.217,0.468,66.385,0.982,99.776,2.719c8.391,0.502,16.672,0.989,25.416,2.151
				l3.368,0.524l3.06,0.549l6.109,1.101l12.303,2.26c16.448,3.104,32.892,6.835,49.055,11.43
				c16.178,4.563,32.127,9.853,47.859,15.661c15.698,5.897,31.172,12.32,46.442,19.161c60.99,27.627,118.497,61.837,173.855,98.82
				c110.231,74.88,212.06,160.881,309.178,251.362l-1.605-0.823h0.003c21.099,3.68,41.874,8.27,62.573,13.458
				c20.688,5.171,41.277,10.818,61.668,17.156c20.399,6.311,40.697,13.037,60.776,20.44c20.049,7.474,39.952,15.423,59.603,24.051
				c9.84,4.279,19.595,8.775,29.305,13.386c9.651,4.737,19.286,9.524,28.782,14.61c19.051,10.058,37.731,20.928,55.953,32.651
				c36.439,23.406,70.715,50.976,100.559,83.574c14.72,16.454,28.547,34.021,39.849,53.396c5.835,9.558,10.845,19.656,15.566,29.878
				c4.517,10.233,8.594,21.155,11.798,31.334c6.79,20.656,12.601,41.594,17.503,62.714l3.461,15.881
				c1.097,5.305,2.021,10.637,3.036,15.954c1.918,10.651,3.682,21.329,5.041,32.05c5.757,42.849,7.726,86.057,6.264,129.025
				c-0.762,21.486-2.313,42.923-5.014,64.221c-1.323,10.651-2.763,21.276-4.671,31.841c-1.825,10.586-3.912,21.065-6.614,31.57
				v0.005l-0.311,2.796l-3.072,0.149c-103.205,5.039-206.435,7.851-309.67,10.356c-51.62,0.967-103.237,2.205-154.861,2.804
				l-77.435,1.1l-77.438,0.716l-77.439,0.716l-77.442,0.4c-51.627,0.335-103.257,0.389-154.889,0.384
				c-103.262-0.012-206.533-0.705-309.814-2.333l-0.078-6.921c103.217-3.986,206.443-7.036,309.679-9.406
				c51.618-1.185,103.237-2.31,154.859-3.153l77.43-1.367l77.435-1.051l77.435-1.051l77.438-0.669
				c51.625-0.58,103.256-0.519,154.886-0.73c103.264,0.149,206.531,0.603,309.824,3.283l-3.383,2.945l0.002-0.007
				c0.906-42.255-0.066-84.468-2.492-126.311c-2.464-41.86-6.639-83.459-13.128-124.569c-6.508-41.084-15.136-81.798-27.863-121.164
				c-3.104-10.076-6.43-19.056-10.387-28.269c-4.121-9.045-8.466-18.028-13.64-26.611c-10.056-17.307-22.145-33.59-35.379-49.003
				c-26.751-30.712-58.812-57.137-92.857-80.828c-34.083-23.762-70.713-44.135-108.218-62.879
				c-18.776-9.348-37.897-18.076-57.232-26.363c-19.335-8.287-38.842-16.264-58.582-23.677
				c-39.461-14.804-79.608-28.391-120.258-39.714h-0.003l-0.858-0.172l-0.747-0.651l-37.466-32.664l-37.781-32.274
				c-25.376-21.288-50.976-42.296-76.918-62.85c-25.79-20.754-52.22-40.667-78.765-60.394c-26.734-19.465-53.79-38.468-81.35-56.678
				c-55.126-36.324-112.139-69.99-172.189-96.843c-15.028-6.653-30.222-12.881-45.598-18.583
				c-15.404-5.61-30.979-10.701-46.741-15.073c-15.772-4.35-31.67-8.098-47.803-11.185l-12.155-2.276l-6.127-1.127l-3.057-0.559
				l-2.776-0.439c-7.692-1.056-15.98-1.602-24.135-2.111c-32.852-1.825-66.02-2.464-99.12-3.043
				c-33.122-0.532-66.266-0.828-99.413-1.015l-198.93-0.438l-397.947,0.921L1176.611,1677.567z"/>
			<path style="fill:#FFFFFF;" d="M1354.539,1744.589c23.385,55.825,45.646,112.056,67.917,168.286l16.501,42.245l8.25,21.124
				l4.125,10.561l2.063,5.281l2.075,4.799c10.833,25.465,30.187,46.938,54.018,60.368c11.944,6.648,24.889,11.389,38.22,14.005
				c3.356,0.532,6.667,1.342,10.068,1.532c3.381,0.304,6.747,0.775,10.152,0.708c6.431,0.264,14.536-0.076,21.954-0.176
				c30.224-0.522,60.446-1.311,90.673-1.592c60.451-0.657,120.898-1.766,181.355-1.96c60.456-0.302,120.907-0.967,181.367-0.821
				l90.687-0.034l90.69,0.424c120.923,0.74,241.852,2.134,362.799,5.755l-2.024,6.244l-32.975-22.993l-32.82-23.206l-65.585-46.481
				c-43.627-31.12-87.054-62.509-130.48-93.899c-43.276-31.594-86.697-62.991-129.794-94.827l-16.187-11.905
				c-2.749-2.058-5.282-3.807-7.852-5.627c-2.643-1.703-5.249-3.471-7.984-5.024c-10.805-6.437-22.441-11.465-34.488-15.048
				c-12.042-3.606-24.521-5.747-37.081-6.36c-6.112-0.255-12.939-0.185-19.634-0.21l-20.092-0.035
				c-53.58-0.059-107.161-0.174-160.743-0.522l-80.37-0.453l-80.37-0.813c-53.581-0.61-107.161-0.936-160.741-1.776
				c-53.58-0.958-107.162-1.594-160.743-2.927v-6.922c53.581-1.335,107.163-1.971,160.743-2.927
				c53.58-0.842,107.161-1.168,160.741-1.778l80.37-0.813l80.37-0.451c53.582-0.35,107.162-0.463,160.743-0.524l20.092-0.035
				c6.7,0.01,13.273-0.108,20.548,0.162c14.194,0.661,28.333,2.971,41.945,7.092c13.606,4.11,26.731,9.857,38.909,17.179
				c3.081,1.774,6.021,3.772,8.993,5.717c2.893,2.055,5.852,4.141,8.456,6.109l16.134,11.976
				c43.087,31.849,85.851,64.136,128.76,96.227c42.757,32.295,85.514,64.589,128.073,97.154l63.69,49.045l31.821,24.558
				l31.664,24.77l7.4,5.789l-9.426,0.456c-120.862,5.845-241.745,9.459-362.632,12.424l-90.668,2.09l-90.671,1.634
				c-60.448,1.257-120.9,1.703-181.351,2.512c-60.449,0.916-120.907,0.921-181.36,1.374c-30.227,0.275-60.458,0.042-90.687,0.074
				c-7.692-0.064-14.706,0.157-23.38-0.306c-4.165-0.041-8.294-0.651-12.427-1.125c-4.152-0.36-8.204-1.371-12.29-2.131
				c-16.266-3.476-31.919-9.693-46.073-18.311c-28.321-17.226-50.583-43.847-62.394-74.456l-2.187-5.705l-1.815-5.37l-3.63-10.742
				l-7.257-21.484l-14.516-42.968c-19.083-57.389-38.174-114.776-56.144-172.571L1354.539,1744.589z"/>
			<path style="fill:#FFFFFF;" d="M1419.171,2578.452c4.608-4.215,9.294-7.812,14.262-11.285c4.931-3.467,10.09-6.62,15.44-9.453
				c10.644-5.764,22.074-10.291,34.024-13.277c11.954-2.949,24.48-4.196,37.005-3.451c12.515,0.813,24.96,3.709,36.62,8.434
				c11.68,4.704,22.563,11.153,32.448,18.718c9.931,7.552,18.623,16.356,26.89,25.445l5.869,7.065l2.927,3.549l2.775,3.878
				c3.883,5.1,6.874,10.605,10.017,16.031c5.862,11.019,10.463,22.424,14.543,33.924c7.775,23.078,12.973,46.647,16.479,70.279
				c3.547,23.632,6.056,47.321,7.209,71.027c1.144,23.708,1.083,47.421-0.443,71.043c-1.507,23.623-3.922,47.145-8.774,70.487
				l-0.002,0.024l-2.911-3.69l295.892,46.615l-0.551-0.042c233.759-0.896,467.522-2.096,701.272-3.914
				c116.874-0.95,233.753-1.982,350.603-3.755l87.618-1.658c14.596-0.352,29.193-0.737,43.763-1.286
				c7.276-0.287,14.574-0.582,21.763-1.098c1.788-0.134,3.586-0.281,5.271-0.492l1.19-0.176l0.458-0.093
				c0.056,0.013,0.331-0.151-0.284,0.159c0.017-1.269-2.217,3.827-1.497,2.413c0.052-0.279,0.116-0.559,0.196-0.84
				c0.144-0.509,0.4-1.215,0.581-1.489l1.08-1.587c2.738-3.246,5.385-5.568,8.045-8.145c10.59-9.957,20.587-20.307,28.625-32.11
				c7.988-11.743,14.255-24.751,16.861-38.602c2.773-13.784,2.078-28.191-1.74-41.801c-3.714-13.658-10.088-26.605-17.996-38.544
				l5.772-3.817c8.214,12.402,14.943,25.993,18.904,40.554c4.071,14.492,4.848,30.095,1.85,44.954
				c-2.82,14.941-9.539,28.828-17.942,41.172c-8.436,12.392-18.894,23.179-29.567,33.213c-2.595,2.487-5.406,5.063-7.375,7.408
				c-0.147,0.235-0.302,0.456-0.471,0.674c-0.069,0.105,0.118-0.132,0.091-0.22c0.007-0.062-0.002-0.127-0.022-0.189
				c0.668-1.188-1.698,4.11-1.899,2.93c-1.017,0.522-1.193,0.468-1.577,0.592l-0.883,0.183l-1.521,0.226
				c-1.94,0.242-3.784,0.39-5.637,0.529c-7.386,0.529-14.689,0.823-22.011,1.112c-14.631,0.551-29.245,0.938-43.861,1.289
				l-87.675,1.659c-116.889,1.773-233.771,2.805-350.655,3.755c-233.768,1.818-467.533,3.018-701.304,3.914h-0.276l-0.275-0.042
				l-295.892-46.615l-3.153-0.497l0.242-3.195l0.002-0.024c-1.544-23.439-2.535-46.814-3.621-70.078
				c-1.24-23.27-2.227-46.465-3.765-69.576c-2.704-46.136-8.079-92.432-21.251-135.678c-3.515-10.672-7.479-21.149-12.41-30.967
				c-2.613-4.775-5.176-9.63-8.234-13.997l-2.2-3.373l-2.548-3.331l-5.114-6.67c-7.187-8.515-14.718-16.768-23.228-23.755
				c-8.51-6.947-17.628-13.074-27.479-17.672c-19.661-9.275-42.161-11.935-64.123-8.096c-10.943,2.038-21.844,5.203-32.235,9.806
				c-10.342,4.529-20.649,10.077-29.632,16.734L1419.171,2578.452z"/>
			<path style="fill:#FFFFFF;" d="M1401.33,2875.471l-598.051-128.206c-23.032-4.938-38.744-25.553-37.36-49.024
				c3.943-66.909,3.804-228.381-82.407-282.573c-22.101-13.89-52.943-5.019-72.251,9.094l-4.086-5.59
				c16.302-11.913,51.493-27.297,80.021-9.365c89.34,56.159,89.646,220.702,85.631,288.838
				c-1.179,20.034,12.236,37.635,31.902,41.853l598.05,128.205L1401.33,2875.471z"/>
			<path style="fill:#FFFFFF;" d="M1609.557,2825.883c-0.171,32.365-4.483,64.949-15.497,95.879
				c-5.57,15.403-12.912,30.42-23.396,43.752c-5.269,6.623-11.536,12.726-18.995,17.554c-3.807,2.32-7.875,4.327-12.246,5.713
				c-4.397,1.311-9.01,2.007-13.633,1.987c-4.623-0.144-9.181-1.002-13.479-2.453c-4.273-1.526-8.206-3.652-11.861-6.068
				c-7.155-5.022-13.062-11.234-17.975-17.931c-9.818-13.458-16.273-28.531-21.351-43.793c-5.108-15.296-8.297-31.06-10.602-46.875
				c-2.232-15.837-3.251-31.809-3.212-47.766c-0.039-15.958,0.98-31.929,3.212-47.766c2.305-15.817,5.494-31.581,10.602-46.875
				c5.078-15.262,11.533-30.337,21.351-43.795c4.912-6.695,10.82-12.908,17.975-17.931c3.655-2.415,7.587-4.542,11.861-6.068
				c4.299-1.449,8.856-2.308,13.479-2.452c4.623-0.022,9.237,0.675,13.633,1.986c4.372,1.386,8.439,3.393,12.246,5.713
				c7.458,4.83,13.726,10.933,18.995,17.556c10.484,13.332,17.826,28.348,23.396,43.751
				C1605.074,2760.934,1609.387,2793.517,1609.557,2825.883z M1592.063,2825.883c0.039-15.396-0.943-30.788-3.084-45.99
				c-2.207-15.173-5.253-30.254-10.068-44.683c-4.757-14.389-10.838-28.434-19.487-40.326c-4.307-5.921-9.35-11.144-14.995-15.163
				c-2.868-1.899-5.857-3.531-8.981-4.677c-3.14-1.066-6.372-1.695-9.657-1.84c-3.285-0.019-6.573,0.446-9.811,1.373
				c-3.223,1.006-6.345,2.518-9.367,4.323c-5.95,3.824-11.352,8.939-16.014,14.787c-9.316,11.764-16.286,25.754-21.533,40.284
				c-5.232,14.579-8.863,29.805-11.296,45.21c-2.31,15.437-3.442,31.062-3.537,46.701c0.094,15.639,1.227,31.263,3.537,46.699
				c2.433,15.406,6.065,30.633,11.296,45.211c5.247,14.531,12.217,28.519,21.533,40.285c4.662,5.847,10.064,10.962,16.014,14.786
				c3.021,1.806,6.144,3.319,9.367,4.324c3.237,0.926,6.526,1.391,9.811,1.372c3.285-0.145,6.517-0.772,9.657-1.838
				c3.124-1.146,6.114-2.778,8.981-4.679c5.646-4.018,10.688-9.24,14.995-15.162c8.648-11.89,14.73-25.935,19.487-40.326
				c4.815-14.427,7.861-29.511,10.068-44.682C1591.12,2856.67,1592.102,2841.279,1592.063,2825.883z"/>
			<path style="fill:#FFFFFF;" d="M1629.665,2819.513c-0.265,23.833-1.947,47.646-5.262,71.266
				c-3.383,23.598-8.329,47.066-15.98,69.797c-7.655,22.675-17.645,44.891-32.262,64.508c-7.333,9.745-16.035,18.721-26.405,25.867
				c-5.289,3.428-10.94,6.42-17.026,8.54c-6.122,2.008-12.565,3.165-19.083,3.321c-6.519-0.027-13.006-1.058-19.205-2.955
				c-6.164-2.009-11.92-4.907-17.331-8.262c-10.605-6.996-19.603-15.877-27.184-25.589c-15.094-19.561-25.548-41.802-33.658-64.537
				c-16.053-45.677-22.402-93.98-22.625-141.957c0.025-12.01,0.363-24.022,1.156-36.018c0.851-11.99,2.083-23.961,3.756-35.885
				c3.68-23.791,8.959-47.421,16.959-70.314c8.025-22.823,18.326-45.24,33.505-64.973c7.626-9.794,16.694-18.781,27.438-25.89
				c5.481-3.41,11.327-6.364,17.603-8.418c6.311-1.945,12.929-3.006,19.585-3.042c6.654,0.149,13.233,1.321,19.478,3.361
				c6.208,2.151,11.96,5.188,17.337,8.664c10.519,7.264,19.313,16.344,26.667,26.2c14.666,19.823,24.612,42.162,32.214,64.934
				C1624.338,2723.868,1630.025,2771.892,1629.665,2819.513z M1622.408,2819.513c-0.566-46.927-7.107-94.087-22.598-138.104
				c-7.868-21.863-18.035-43.063-32.032-61.029c-6.993-8.936-15.144-16.825-24.255-22.814c-4.625-2.849-9.441-5.264-14.465-6.904
				c-5.046-1.524-10.22-2.332-15.413-2.371c-5.196,0.15-10.33,1.071-15.31,2.69c-4.956,1.737-9.679,4.234-14.199,7.148
				c-8.888,6.146-16.764,14.128-23.486,23.128c-13.483,18.052-23.294,39.176-30.739,60.989c-7.491,21.861-12.43,44.66-15.849,67.645
				c-1.688,11.506-2.955,23.081-3.856,34.694c-0.84,11.619-1.242,23.272-1.343,34.93c0.026,11.658,0.352,23.316,1.117,34.945
				c0.825,11.622,2.018,23.214,3.633,34.744c3.396,23.009,8.136,45.88,15.544,67.837c7.362,21.9,17.018,43.2,30.589,61.426
				c6.764,9.081,14.711,17.168,23.738,23.426c4.591,2.971,9.404,5.524,14.472,7.307c5.092,1.664,10.358,2.617,15.69,2.776
				c5.329-0.031,10.639-0.855,15.808-2.41c5.145-1.673,10.064-4.133,14.776-7.029c9.26-6.107,17.505-14.1,24.517-23.147
				c14.047-18.17,24.169-39.496,31.986-61.455C1616.146,2913.773,1622.932,2866.477,1622.408,2819.513z"/>
			<path style="fill:#FFFFFF;" d="M735.098,2639.575c0.193,13.758-1.085,27.513-3.212,41.125
				c-2.246,13.595-5.399,27.088-10.112,40.158c-4.72,13.039-10.779,25.81-19.583,37.127c-4.414,5.625-9.672,10.811-15.935,14.922
				c-3.197,1.976-6.614,3.689-10.291,4.878c-3.699,1.129-7.582,1.739-11.484,1.746c-3.902-0.098-7.754-0.797-11.398-2.002
				c-3.623-1.269-6.964-3.048-10.081-5.071c-6.104-4.209-11.173-9.448-15.403-15.108c-8.432-11.386-14.115-24.158-18.464-37.16
				c-8.581-26.101-12.067-53.434-11.989-80.614c0.221-27.157,3.41-54.515,12.189-80.546c4.476-12.94,10.156-25.665,18.535-37.022
				c4.209-5.64,9.254-10.854,15.315-15.038c3.094-2.011,6.413-3.771,10.005-5.023c3.613-1.19,7.429-1.877,11.291-1.97
				c3.863,0.01,7.704,0.623,11.369,1.737c3.643,1.176,7.031,2.873,10.206,4.831c6.222,4.079,11.459,9.233,15.857,14.833
				c8.779,11.266,14.837,24.007,19.554,37.02C730.745,2584.545,734.654,2612.104,735.098,2639.575z M721.478,2639.575
				c0.328-26.205-2.706-52.685-10.735-77.491c-4.066-12.327-9.426-24.306-16.92-34.492c-3.745-5.068-8.13-9.549-13.054-12.994
				c-2.503-1.631-5.114-3.03-7.848-4.007c-2.746-0.909-5.576-1.419-8.441-1.516c-2.864,0.014-5.72,0.45-8.518,1.283
				c-2.783,0.901-5.465,2.234-8.049,3.814c-5.085,3.341-9.661,7.763-13.594,12.79c-7.895,10.096-13.633,22.089-17.941,34.489
				c-8.526,24.925-12.281,51.605-12.176,78.125c0.194,26.496,3.651,53.2,12.378,78.055c4.432,12.336,10.168,24.284,18.008,34.35
				c3.915,5.009,8.466,9.404,13.508,12.719c2.56,1.568,5.22,2.883,7.974,3.768c2.766,0.818,5.585,1.242,8.41,1.25
				c2.825-0.1,5.614-0.614,8.326-1.509c2.7-0.963,5.284-2.346,7.765-3.959c4.882-3.412,9.243-7.861,12.974-12.905
				c7.469-10.135,12.827-22.083,16.891-34.384c4.081-12.338,6.729-25.204,8.513-38.165
				C720.686,2665.807,721.238,2652.691,721.478,2639.575z"/>
			<path style="fill:#FFFFFF;" d="M654.152,2839.943c-54.619,0-99.055-92.317-99.055-205.788s44.435-205.788,99.055-205.788
				c54.618,0,99.053,92.317,99.053,205.788S708.769,2839.943,654.152,2839.943z M654.152,2435.289
				c-50.802,0-92.133,89.212-92.133,198.866s41.331,198.866,92.133,198.866c50.802,0,92.131-89.212,92.131-198.866
				S704.954,2435.289,654.152,2435.289z"/>
			<path style="fill:#FFFFFF;" d="M1607.226,3068.331c-13.169,0-27.539-0.811-43.244-2.616l0.791-6.874
				c86.88,9.977,131.636-10.943,153.894-30.258c23.922-20.757,27.672-44.188,27.708-44.421l6.849,1
				c-0.152,1.044-4.006,25.847-29.614,48.294C1704.4,3050.298,1669.311,3068.331,1607.226,3068.331z"/>
			<path style="fill:#FFFFFF;" d="M711.623,2848.72c-11.006,0-22.86-0.581-35.645-1.855l0.686-6.888
				c142.537,14.191,166.052-60.91,166.272-61.667l6.648,1.927C848.7,2783.281,828.244,2848.72,711.623,2848.72z"/>
			<path style="fill:#FFFFFF;" d="M538.931,2618.8c-1.985-0.494-48.599-13.258-45.16-108.793c0.326-9.037,0.525-19.351,0.755-31.295
				c2.063-107.032,6.357-329.752,134.093-486.951c55.323-68.082,128.48-116.697,201.192-169.1
				c120.567-86.892,239.802-139.549,346.799-145.094l0.103,6.922c-101.07,3.35-223.309,61.139-341.562,148.219
				c-73.012,53.765-145.681,95.143-201.163,163.42c-126.232,155.347-130.494,376.458-132.544,482.719
				c-0.23,11.974-0.429,22.313-0.757,31.41c-3.221,89.451,39.509,101.719,39.94,101.834L538.931,2618.8z"/>
			<path style="fill:#FFFFFF;" d="M1436.461,2212.937c-10.088-29.619-19.309-59.234-29.203-88.219
				c-4.975-14.473-10.085-28.813-15.71-42.672c-5.593-13.808-11.778-27.358-18.993-38.741c-3.574-5.551-7.655-10.532-11.186-13.094
				c-4.133-3.114-9.961-5.904-16.276-8.086c-12.724-4.451-27.275-6.878-41.884-8.534c-14.679-1.607-29.686-2.212-44.697-2.109
				c-15.009,0.037-30.089,0.747-44.888,2.337c-7.383,0.804-14.727,1.822-21.709,3.219c-3.471,0.698-6.896,1.488-9.914,2.408
				c-1.534,0.448-2.898,0.946-4.042,1.402l-0.771,0.328l-0.547,0.267c-0.128,0.069-0.155,0.097-0.252,0.127
				c0.064-0.035,0.097-0.071,0.269-0.24c0.36-0.304,0.436-0.412,1.13-1.261c0.752-1.166,0.269-0.429,0.228-0.328
				c-0.23,0.329-0.548,1.005-0.849,1.578c-0.615,1.254-1.237,2.722-1.833,4.233c-1.176,3.064-2.239,6.36-3.224,9.693
				c-1.921,6.707-3.351,13.676-4.189,20.656c-1.744,13.953-1.183,28.088,2.621,40.714c3.773,12.643,11.09,23.434,21.724,31.084
				c1.325,0.96,2.648,1.931,4.115,2.731c1.44,0.838,2.785,1.757,4.459,2.45c3.214,1.463,6.359,3.059,9.64,4.471l10.255,3.665
				c3.476,1.127,7.099,1.975,10.649,2.988c14.377,3.711,29.359,6.169,44.52,7.72c30.349,2.893,61.411,3.219,92.182,1.475
				l0.938,6.857c-30.982,5.654-62.313,8.408-94.085,8.021c-15.879-0.365-31.86-1.629-47.887-4.463
				c-16.043-3.028-31.966-7.417-47.568-16.788c-7.635-4.784-14.612-10.979-20.288-18.208c-5.742-7.197-9.976-15.45-12.956-23.89
				c-5.951-16.981-7.212-34.59-5.913-51.519c0.639-8.501,1.955-16.886,3.939-25.234c1.002-4.182,2.182-8.341,3.694-12.574
				c0.772-2.127,1.6-4.272,2.629-6.539c0.556-1.171,1.043-2.27,1.807-3.611c0.448-0.74,0.377-0.891,1.764-2.8
				c1.229-1.669,2.073-2.391,3.121-3.383c0.914-0.791,1.737-1.399,2.586-2.002c0.733-0.477,1.519-0.984,2.234-1.398l2.031-1.094
				l1.881-0.889c2.428-1.074,4.711-1.938,6.889-2.649c4.385-1.462,8.525-2.515,12.65-3.468c8.224-1.877,16.271-3.202,24.32-4.306
				c32.13-4.241,64.122-5.172,96.662-2.173c16.281,1.59,32.651,4.216,49.386,9.872c8.344,2.908,16.878,6.582,25.266,12.743
				c2.08,1.553,4.174,3.321,6.131,5.229c1.681,1.823,3.465,3.668,5.004,5.527c1.433,1.859,2.95,3.73,4.278,5.605l3.758,5.637
				c9.182,15.09,15.139,30.376,20.252,45.729c2.589,7.67,4.662,15.408,6.778,23.11c1.916,7.748,3.81,15.469,5.364,23.245
				c6.286,31.08,10.174,62.349,10.544,94.046L1436.461,2212.937z"/>
			<path style="fill:#FFFFFF;" d="M1788.308,2366.243c2.002,1.305,4.27,2.493,8.714,1.477c3.038-0.715,5.106-3.403,5.346-3.743
				c0.642-0.896,0.98-1.695,1.046-1.845c0.155-0.355,0.279-0.774,0.299-0.823l0.149-0.549c0.02-0.139,0.022-0.053,0.022-0.053
				l-0.005,1.129c0.019,1.058,0.093,2.313,0.203,3.589c0.223,2.57,0.573,5.274,0.994,7.983c0.842,5.427,1.97,10.919,3.265,16.374
				c2.619,10.916,5.901,21.744,9.843,32.308c7.863,21.144,18.071,41.341,30.244,60.059c24.259,37.455,56.779,69.159,96.04,90.19
				c19.602,10.478,40.613,18.531,62.421,24.125c10.899,2.829,22.015,4.934,33.22,6.66c5.563,0.868,11.352,1.493,17.072,2.202
				c5.733,0.73,11.469,1.399,17.204,1.85c22.931,2.148,45.965,3.109,68.604,1.445c11.328-0.757,22.512-2.389,33.272-5.091
				c10.744-2.687,21.148-6.562,29.93-12.472c8.758-5.865,15.896-13.797,19.396-23.585c1.848-4.826,2.95-10.024,3.204-15.38
				c0.345-5.338,0.046-10.82-0.889-16.268c-1.685-10.936-5.637-21.673-10.518-31.882c-0.642-1.262-1.235-2.553-1.914-3.797
				c-0.632-1.149-1.426-2.778-1.865-3.315c-1.065-1.573-3.02-3.172-5.184-4.558c-4.407-2.801-9.706-4.956-15.049-6.865
				c-10.764-3.824-22.12-6.538-33.468-9.14c-11.371-2.58-22.841-4.892-34.323-7.178c-22.963-4.622-46.081-8.648-69.121-13.174
				c-46.11-8.841-92.297-18.081-137.733-31.397C1873.429,2411.141,1828.489,2393.587,1788.308,2366.243z M1800.423,2349.286
				c36.466,27.057,78.812,46.806,122.397,62.751c43.726,15.897,89.153,27.6,135.009,36.946c22.958,4.586,45.986,8.9,69.101,12.986
				c23.096,4.304,46.213,8.282,69.18,15.315c5.735,1.864,11.472,3.907,17.101,7.207c2.783,1.7,5.641,3.658,8.04,6.837
				c1.335,1.808,1.774,2.859,2.614,4.24c0.769,1.308,1.447,2.66,2.175,3.988c5.604,10.724,10.097,22.126,12.635,34.278
				c1.313,6.054,1.974,12.34,1.855,18.708c-0.024,6.359-1.046,12.844-3.099,19.056c-3.868,12.631-12.721,23.377-22.968,31.047
				c-10.33,7.758-22.04,12.743-33.803,16.381c-11.8,3.646-23.821,6.016-35.825,7.457c-24.036,3.027-48.062,3.241-71.888,2.263
				c-5.974-0.162-11.915-0.542-17.848-0.983c-5.947-0.426-11.844-0.75-17.91-1.374c-12.05-1.24-24.071-3.135-35.989-5.705
				c-23.833-5.102-47.306-13.003-69.297-24.215c-21.989-11.144-42.678-25.239-60.71-42.211
				c-18.128-16.866-33.592-36.442-46.245-57.482c-12.604-21.1-22.395-43.653-29.665-66.885c-3.614-11.629-6.675-23.417-8.943-35.434
				c-1.13-6.012-2.085-12.067-2.751-18.265c-0.331-3.106-0.593-6.234-0.722-9.515c-0.061-1.649-0.091-3.326-0.032-5.198
				c0.042-0.97,0.086-1.938,0.255-3.258l0.181-1.139l0.137-0.674l0.25-0.948c0.061-0.228,0.255-0.814,0.478-1.341
				c0.122-0.326,0.551-1.283,1.298-2.331c0.321-0.5,2.555-3.312,5.754-4.084C1795.821,2346.621,1798.253,2347.903,1800.423,2349.286
				z"/>
			<path style="fill:#FFFFFF;" d="M3121.686,2357.443c0.037,0.584-0.045,1.5-0.16,1.82c-0.103,0.363-0.232,0.792-0.355,1.091
				c-0.236,0.544-0.493,1.112-0.74,1.528c-0.5,0.928-1.008,1.7-1.528,2.465c-1.034,1.526-2.104,2.93-3.193,4.302
				c-2.18,2.744-4.436,5.356-6.729,7.923c-4.61,5.108-9.399,9.992-14.255,14.803c-9.726,9.602-19.791,18.826-30.124,27.76
				c-20.786,17.716-42.63,34.283-66.288,48.58c-11.879,7.053-24.186,13.674-37.672,18.412c-6.739,2.356-13.78,4.274-21.285,5.149
				c-5.896,0.713-11.109,2.445-15.757,5.502c-9.277,6.041-15.213,16.928-17.588,28.679c-1.142,5.918-1.419,12.063-0.99,18.169
				c0.394,6.114,1.599,12.205,3.566,18.025c3.797,11.682,10.438,22.407,19.316,30.756c4.446,4.157,9.362,7.857,14.805,10.686
				c5.324,3.043,11.188,5.105,17.138,6.83c12.028,3.15,24.86,3.836,37.706,2.78c12.823-1.037,25.508-3.952,37.85-8.09
				c24.651-8.547,47.614-22.409,68.351-38.998c20.91-16.385,39.996-35.635,56.646-56.345l5.664,3.979
				c-7.787,11.511-16.418,22.052-25.646,32.248c-9.225,10.157-19.004,19.854-29.457,28.855
				c-20.97,17.846-44.56,33.223-70.872,43.278c-13.157,4.971-27.045,8.29-41.202,9.689c-14.083,1.355-28.703,0.987-42.939-2.646
				c-7.05-1.979-14.058-4.434-20.542-8.064c-6.587-3.403-12.638-7.869-18.088-12.92c-10.914-10.139-19.044-23.161-23.493-37.252
				c-2.322-7.021-3.736-14.336-4.189-21.736c-0.483-7.393-0.117-14.88,1.35-22.265c1.541-7.364,4.154-14.634,8.175-21.302
				c4.016-6.639,9.561-12.633,16.347-16.928c6.717-4.343,14.742-6.761,22.304-7.508c5.97-0.605,12.114-2.134,18.174-4.164
				c12.138-4.108,24.08-9.872,35.623-16.367c23.132-13.049,44.973-28.831,66.009-45.496c10.549-8.312,20.872-16.944,30.847-25.93
				c4.987-4.49,9.868-9.091,14.596-13.792c2.368-2.344,4.691-4.726,6.877-7.158c1.093-1.211,2.151-2.445,3.094-3.667
				c0.473-0.605,0.929-1.23,1.267-1.774c0.206-0.301,0.296-0.507,0.427-0.725c0.044-0.088,0.024-0.071,0.061-0.107
				c0.035-0.079-0.093,0.399,0.008,0.568L3121.686,2357.443z"/>
			<path style="fill:#FFFFFF;" d="M1137.511,2121.666l-420.415-154.201l-4.795-1.759l3.401-3.789l0.005-0.007
				c12.461-14.228,25.509-27.667,38.982-40.79c13.463-13.105,27.265-25.871,41.492-38.167
				c28.554-24.455,58.437-47.487,90.153-67.941c31.648-20.519,65.277-38.237,100.69-51.941
				c17.741-6.761,36.005-12.274,54.638-16.369c4.686-0.909,9.323-2.049,14.051-2.763l14.189-2.107
				c9.345-1.098,18.657-2.075,28.004-3.004c37.358-3.679,74.868-6.332,112.551-6.732c9.216-0.144,19.338-0.024,29.082,1.597
				c9.752,1.673,19.252,4.65,28.27,8.669c9.054,3.964,17.478,9.304,25.095,15.558c7.606,6.26,14.556,13.361,20.333,21.349
				c5.769,7.984,10.537,16.662,14.218,25.775l2.492,6.935c0.798,2.293,1.428,4.478,2.15,6.722l4.204,13.383l16.773,53.542
				l33.004,107.26l-6.587,2.122l-35.854-106.34l-17.657-53.257l-4.403-13.318c-0.744-2.195-1.448-4.495-2.222-6.604l-2.344-6.232
				c-3.454-8.175-7.864-15.92-13.15-23.022c-10.735-14.063-24.955-25.481-41.137-32.536c-8.07-3.543-16.552-6.162-25.253-7.614
				c-8.745-1.382-17.39-1.474-26.863-1.289c-37.128,0.576-74.306,3.385-111.365,7.219c-9.26,0.963-18.542,1.994-27.767,3.109
				l-13.571,1.942c-4.523,0.652-8.986,1.732-13.483,2.575c-17.912,3.832-35.579,9.049-52.828,15.512
				c-17.223,6.548-34.075,14.137-50.551,22.525c-16.494,8.366-32.432,17.833-48.21,27.559
				c-31.505,19.57-61.401,41.812-90.053,65.526c-28.685,23.646-56.247,48.945-81.901,75.747l-0.005,0.005l-1.394-5.548
				l420.415,154.201L1137.511,2121.666z"/>
			<path style="fill:#FFFFFF;" d="M2779.478,3058.243c-25.93,0-48.479-3.065-67.125-7.215
				c-58.704-13.066-91.623-38.713-92.995-39.798l4.29-5.431c0.326,0.257,33.303,25.884,90.581,38.555
				c52.84,11.693,137.823,14.431,242.558-38.919l3.143,6.164C2890.027,3047.205,2828.672,3058.243,2779.478,3058.243z"/>
			
				<linearGradient id="SVGID_00000109026488959711564990000011026812690172413099_" gradientUnits="userSpaceOnUse" x1="2260.0063" y1="1808.6821" x2="1117.9664" y2="3504.4355">
				<stop  offset="0" style="stop-color:#FF9085"/>
				<stop  offset="1" style="stop-color:#FB6FBB"/>
			</linearGradient>
			<path style="opacity:0.3;fill:url(#SVGID_00000109026488959711564990000011026812690172413099_);" d="M2073.593,2286.548
				c-417.966-320.35-890.022-110.412-1074.499-404.884c-26.204-41.828-42.081-86.623-50.697-131.842
				c-26.734,14.504-52.749,31.15-77.839,49.929l-185.76,138.804c0,0-44.357,31.973-89.568,108.531
				c-0.003,0.005-0.005,0.01-0.009,0.015c-0.024-0.003-0.047-0.005-0.069-0.007c-51.446,87.027-103.948,231.752-93.58,452.476
				l-4.339,10.561c-3.326,18.257-1.114,37.091,5.857,53.293c2.636,6.129,5.931,11.893,9.897,17.087l26.741,35.028
				c0-0.002,0-0.005,0-0.005l0.005,0.005c0.012-0.157,0.027-0.311,0.039-0.466c0.001,0.125-0.002,0.245,0,0.37h9.169
				c-0.239,6.083-0.384,12.24-0.384,18.493c0,115.637,41.684,211.46,92.201,213.874c0.453,0.022,0.897-0.019,1.347-0.012
				c103.752,13.85,137.38-1.639,140.144-2.151c0,0,0.458-0.056,0.458-0.061c27.28-6.09,50.74-42.352,63.908-94.485l524.375,117.473
				l35.783,8.022c13.015,93.982,51.656,165.719,98.036,177.384c0,0.008,0,0.017,0,0.025c0.106,0.013,0.204,0.026,0.311,0.041
				c3.49,0.856,7.018,1.416,10.589,1.576c0.449,0.02,0.892-0.02,1.34-0.012c127.861,16.077,168.994-1.906,172.401-2.5
				c0,0-0.107-0.066-0.107-0.071c29.676-6.239,55.248-39.758,71.736-89.139c0.154,0.092,0.315,0.182,0.472,0.274
				c2.526,1.533,5.777,3.173,10.044,4.844c16.253,6.639,44.976,13.628,94.928,15.272c43.622,2.712,104.651,3.451,190.544,0.374
				h550.388c20.49,39.851,47.092,66.23,76.577,72.278c0.002,0.018,0.002,0.042,0.003,0.061c0.272,0.024,0.529,0.042,0.801,0.068
				c4.027,0.774,8.101,1.222,12.228,1.222c0.485,0,0.963-0.066,1.447-0.078c153.385,12.049,203.942-11.187,208.176-12.07
				c0,0-0.622-0.076-0.622-0.081c16.896-4.106,32.71-14.941,46.892-31.113c-145.79-17.163-289.867-62.332-417.376-152.223
				C2275.881,2679.651,2343.292,2493.26,2073.593,2286.548z M647.642,2435.672l0.899-2.758c4.378,0.311,8.691,1.122,12.92,2.47
				C656.418,2435.447,651.78,2435.55,647.642,2435.672z"/>
		</g>
		
			<linearGradient id="SVGID_00000070113450189633361660000001752259356181317275_" gradientUnits="userSpaceOnUse" x1="1947.0651" y1="1507.7109" x2="2249.8982" y2="1507.7109">
			<stop  offset="0" style="stop-color:#FFC444"/>
			<stop  offset="0.9964" style="stop-color:#F36F56"/>
		</linearGradient>
		<path style="opacity:0.95;fill:url(#SVGID_00000070113450189633361660000001752259356181317275_);" d="M1953.985,1676.683
			c-1.639,0-3.285-0.578-4.605-1.754c-2.852-2.545-3.104-6.921-0.559-9.774l288.99-324.101c2.545-2.852,6.92-3.103,9.772-0.561
			c2.853,2.545,3.104,6.921,0.559,9.774l-288.99,324.101C1957.785,1675.902,1955.889,1676.683,1953.985,1676.683z"/>
		
			<linearGradient id="SVGID_00000051376661891902864830000013012430141611258241_" gradientUnits="userSpaceOnUse" x1="1446.4081" y1="1518.9747" x2="1589.4603" y2="1518.9747">
			<stop  offset="0" style="stop-color:#FFC444"/>
			<stop  offset="0.9964" style="stop-color:#F36F56"/>
		</linearGradient>
		<path style="fill:url(#SVGID_00000051376661891902864830000013012430141611258241_);" d="M1582.541,1676.686
			c-2.685,0-5.24-1.575-6.365-4.198l-129.206-301.573c-1.506-3.515,0.123-7.584,3.636-9.088c3.511-1.514,7.58,0.122,9.088,3.633
			l129.206,301.573c1.506,3.515-0.123,7.584-3.636,9.091C1584.374,1676.504,1583.45,1676.686,1582.541,1676.686z"/>
		<g>
			<g>
				
					<linearGradient id="SVGID_00000079470997353791159370000011439730389279745715_" gradientUnits="userSpaceOnUse" x1="-4268.062" y1="-1446.0505" x2="-4312.7676" y2="-841.5526" gradientTransform="matrix(-0.6384 0.7697 0.7697 0.6384 -999.4765 6896.9736)">
					<stop  offset="0" style="stop-color:#AA80F9"/>
					<stop  offset="0.9964" style="stop-color:#6165D7"/>
				</linearGradient>
				<path style="fill:url(#SVGID_00000079470997353791159370000011439730389279745715_);" d="M1070.948,3111.776l71.373-86.069
					c6.805-8.207,5.669-20.376-2.537-27.181l-450.013-373.167l-96.016,115.788l450.012,373.167
					C1051.974,3121.118,1064.143,3119.982,1070.948,3111.776z"/>
				
					<linearGradient id="SVGID_00000160896842419250006330000005836900665938104738_" gradientUnits="userSpaceOnUse" x1="-4287.8218" y1="-948.2714" x2="-4294.4888" y2="-858.1238" gradientTransform="matrix(-0.6384 0.7697 0.7697 0.6384 -999.4765 6896.9736)">
					<stop  offset="0" style="stop-color:#444B8C"/>
					<stop  offset="0.9964" style="stop-color:#26264F"/>
				</linearGradient>
				<path style="fill:url(#SVGID_00000160896842419250006330000005836900665938104738_);" d="M1015.957,3052.26
					c19.214,15.933,47.705,13.273,63.638-5.941c15.932-19.213,13.273-47.705-5.941-63.638c-19.214-15.933-47.706-13.273-63.638,5.94
					C994.083,3007.835,996.743,3036.327,1015.957,3052.26z"/>
			</g>
			<g>
				<g>
					<g>
						<path style="fill:#97A6B7;" d="M768.583,2306.605l89.102,40.576c12.376,5.636,16.805,30.116,7.747,40.259l-206.284,221.325
							c-18.533,21.06-49.747,25.253-73.181,9.831l-16.016-10.54c-23.88-15.716-28.945-48.626-10.896-70.795l185.603-225.129
							C750.465,2305.089,760.277,2302.823,768.583,2306.605z"/>
						
							<linearGradient id="SVGID_00000062891136522126340790000007285200434392929957_" gradientUnits="userSpaceOnUse" x1="-1166.2412" y1="2816.5735" x2="-841.1564" y2="2816.5735" gradientTransform="matrix(-0.0142 0.9999 0.9999 0.0142 -2121.8625 3442.583)">
							<stop  offset="0.0036" style="stop-color:#EBEFF2"/>
							<stop  offset="1" style="stop-color:#FFFFFF"/>
						</linearGradient>
						<path style="fill:url(#SVGID_00000062891136522126340790000007285200434392929957_);" d="M768.408,2318.968l89.102,40.576
							c12.376,5.636,15.743,21.653,6.685,31.795l-205.221,229.79c-18.534,21.059-49.747,25.252-73.181,9.83l-16.017-10.54
							c-23.88-15.715-28.945-48.626-10.896-70.795l185.603-225.13C750.29,2317.451,760.101,2315.185,768.408,2318.968z"/>
						<path style="fill:#D8DEE8;" d="M631.084,2621.732c26.771-9.465,41.971-35.528,33.951-58.216
							c-8.021-22.687-36.225-33.407-62.996-23.942c-26.771,9.465-41.972,35.529-33.951,58.216
							C576.108,2620.477,604.313,2631.196,631.084,2621.732z"/>
						
							<linearGradient id="SVGID_00000027584880840532849750000001776585607551653006_" gradientUnits="userSpaceOnUse" x1="-927.2007" y1="2816.7761" x2="-586.7161" y2="2816.7761" gradientTransform="matrix(-0.0142 0.9999 0.9999 0.0142 -2121.8625 3442.583)">
							<stop  offset="0" style="stop-color:#D8DEE8"/>
							<stop  offset="0.9964" style="stop-color:#97A6B7"/>
						</linearGradient>
						<path style="fill:url(#SVGID_00000027584880840532849750000001776585607551653006_);" d="M866.616,2806.84l-99.835,85.6
							c-6.29,5.394-15.496,5.651-22.078,0.619l-153.986-117.726c-2.758-2.109-4.828-4.988-5.95-8.273l-45.389-133.02
							c-2.283-6.691-0.327-14.098,4.961-18.79l63.788-56.603c5.801-5.147,14.293-5.876,20.886-1.792l168.943,104.656
							c2.498,1.548,4.567,3.698,6.018,6.253l66.479,117.093C874.6,2792.158,872.991,2801.374,866.616,2806.84z"/>
						
							<linearGradient id="SVGID_00000046319927872697507270000017369661338817635513_" gradientUnits="userSpaceOnUse" x1="-784.89" y1="2834.0237" x2="-600.351" y2="2834.0237" gradientTransform="matrix(-0.0142 0.9999 0.9999 0.0142 -2121.8625 3442.583)">
							<stop  offset="0" style="stop-color:#D8DEE8"/>
							<stop  offset="0.9964" style="stop-color:#97A6B7"/>
						</linearGradient>
						<path style="fill:url(#SVGID_00000046319927872697507270000017369661338817635513_);" d="M607.407,2751.467l50.053-49.899
							c4.66-4.646,11.826-5.676,17.596-2.511c29.964,16.43,119.236,68.401,157.857,90.935c9.018,5.262,10.353,17.74,2.661,24.799
							c-20.037,18.388-54.266,49.793-70.179,64.353c-5.323,4.871-13.369,5.198-19.08,0.787l-137.502-106.209
							C601.725,2768.247,601.064,2757.79,607.407,2751.467z"/>
						<path style="fill:#D8DEE8;" d="M775.844,2329.571l-99.416,125.371c-7.068,8.913-8.745,20.96-4.381,31.465l57.795,139.108
							c4.706,11.326,15.72,18.748,27.984,18.858l106.026,0.947l84.104-132.617c5.04-7.946,5.854-17.862,2.178-26.524l-63.139-148.8
							c-4.807-11.327-15.847-18.749-28.151-18.924l-57.847-0.821C791.216,2317.495,781.923,2321.904,775.844,2329.571z"/>
						
							<linearGradient id="SVGID_00000108296065395570227340000005881014263789921408_" gradientUnits="userSpaceOnUse" x1="-1149.4185" y1="2972.4395" x2="-987.0333" y2="2972.4395" gradientTransform="matrix(-0.0142 0.9999 0.9999 0.0142 -2121.8625 3442.583)">
							<stop  offset="0.0036" style="stop-color:#EBEFF2"/>
							<stop  offset="1" style="stop-color:#FFFFFF"/>
						</linearGradient>
						<path style="fill:url(#SVGID_00000108296065395570227340000005881014263789921408_);" d="M796.219,2347.899l52.942,143.433
							c1.496,4.052,5.457,6.658,9.77,6.427l67.097-3.593c6.779-0.363,11.168-7.313,8.583-13.591l-57.232-138.956
							c-1.502-3.648-5.034-6.049-8.979-6.105l-62.79-0.891C798.688,2334.524,793.821,2341.403,796.219,2347.899z"/>
						<path style="fill:#97A6B7;" d="M846.159,2525.863l89.102,40.576c12.376,5.635,16.806,30.116,7.747,40.259l-206.284,221.325
							c-18.533,21.06-49.747,25.252-73.181,9.831l-16.017-10.54c-23.88-15.715-28.945-48.626-10.896-70.795l185.604-225.13
							C828.041,2524.346,837.852,2522.08,846.159,2525.863z"/>
						
							<linearGradient id="SVGID_00000088855449735505306530000009482668615134794891_" gradientUnits="userSpaceOnUse" x1="-948.1071" y1="2897.2546" x2="-623.0225" y2="2897.2546" gradientTransform="matrix(-0.0142 0.9999 0.9999 0.0142 -2121.8625 3442.583)">
							<stop  offset="0.0036" style="stop-color:#EBEFF2"/>
							<stop  offset="1" style="stop-color:#FFFFFF"/>
						</linearGradient>
						<path style="fill:url(#SVGID_00000088855449735505306530000009482668615134794891_);" d="M845.983,2538.226l89.102,40.576
							c12.376,5.636,15.743,21.652,6.685,31.795L736.55,2840.385c-18.533,21.06-49.747,25.253-73.181,9.831l-16.017-10.54
							c-23.88-15.716-28.945-48.626-10.896-70.795l185.604-225.129C827.865,2536.709,837.677,2534.443,845.983,2538.226z"/>
						<path style="fill:#D8DEE8;" d="M708.66,2840.99c26.771-9.464,41.972-35.529,33.951-58.216
							c-8.021-22.688-36.225-33.407-62.996-23.942c-26.771,9.464-41.971,35.529-33.951,58.216
							C653.684,2839.735,681.888,2850.454,708.66,2840.99z"/>
					</g>
					<g>
						
							<linearGradient id="SVGID_00000109019577237807479780000008206701551676155282_" gradientUnits="userSpaceOnUse" x1="638.9864" y1="-12578.1582" x2="543.4887" y2="-12428.29" gradientTransform="matrix(-0.7629 -0.6465 -0.6465 0.7629 -6761.3428 12354.3838)">
							<stop  offset="0" style="stop-color:#AA80F9"/>
							<stop  offset="0.9964" style="stop-color:#6165D7"/>
						</linearGradient>
						<polygon style="fill:url(#SVGID_00000109019577237807479780000008206701551676155282_);" points="744.214,2391.894 
							906.668,2529.57 1007.025,2406.375 844.571,2268.698 						"/>
						
							<linearGradient id="SVGID_00000004520517533258335510000001569274667588511408_" gradientUnits="userSpaceOnUse" x1="812.6913" y1="-12773.2813" x2="579.6401" y2="-12407.5439" gradientTransform="matrix(-0.7629 -0.6465 -0.6465 0.7629 -6761.3428 12354.3838)">
							<stop  offset="0" style="stop-color:#AA80F9"/>
							<stop  offset="0.9964" style="stop-color:#6165D7"/>
						</linearGradient>
						<path style="fill:url(#SVGID_00000004520517533258335510000001569274667588511408_);" d="M743.923,2392.176
							c-9.111,10.75,19.87,50.285,64.73,88.304c44.861,38.018,88.613,60.123,97.723,49.373c9.111-10.75-19.87-50.285-64.731-88.303
							C796.786,2403.531,753.034,2381.426,743.923,2392.176z"/>
						
							<linearGradient id="SVGID_00000026852138513788775430000010929986109003833016_" gradientUnits="userSpaceOnUse" x1="946.9818" y1="-13070.8291" x2="560.5039" y2="-12464.3145" gradientTransform="matrix(-0.7629 -0.6465 -0.6465 0.7629 -6761.3428 12354.3838)">
							<stop  offset="0" style="stop-color:#AA80F9"/>
							<stop  offset="0.9964" style="stop-color:#6165D7"/>
						</linearGradient>
						<path style="opacity:0.6;fill:url(#SVGID_00000026852138513788775430000010929986109003833016_);" d="M983.491,2394.679
							l-74.513,92.7c-9.477,11.183-25.651,13.884-38.218,6.337c-12.481-7.494-28.063-18.36-45.32-32.984
							c-17.256-14.624-30.532-28.214-39.97-39.296c-9.505-11.16-9.493-27.558-0.016-38.74l74.513-92.701L983.491,2394.679z"/>
						
							<linearGradient id="SVGID_00000099624296486992642660000016402574528573019819_" gradientUnits="userSpaceOnUse" x1="684.2429" y1="-12694.7168" x2="597.4877" y2="-12596.0537" gradientTransform="matrix(-0.7629 -0.6465 -0.6465 0.7629 -6761.3428 12354.3838)">
							<stop  offset="0" style="stop-color:#AA80F9"/>
							<stop  offset="0.9964" style="stop-color:#6165D7"/>
						</linearGradient>
						<path style="fill:url(#SVGID_00000099624296486992642660000016402574528573019819_);" d="M844.571,2268.698
							c-9.111,10.75,19.87,50.285,64.73,88.303c44.861,38.019,88.613,60.124,97.723,49.373c9.111-10.75-19.87-50.285-64.731-88.303
							C897.434,2280.053,853.682,2257.948,844.571,2268.698z"/>
						
							<linearGradient id="SVGID_00000047753538071376332930000017516561793800757646_" gradientUnits="userSpaceOnUse" x1="620.4122" y1="-12667.5283" x2="542.4393" y2="-12441.2178" gradientTransform="matrix(-0.7629 -0.6465 -0.6465 0.7629 -6761.3428 12354.3838)">
							<stop  offset="0" style="stop-color:#444B8C"/>
							<stop  offset="0.9964" style="stop-color:#26264F"/>
						</linearGradient>
						<path style="fill:url(#SVGID_00000047753538071376332930000017516561793800757646_);" d="M1009.372,2228.032
							c2.82-2.84,13.051,5.83,10.712,9.078l-60.813,117.926c-2.67,3.708-17.749-4.174-33.473-17.5
							c-15.724-13.326-25.973-26.908-22.753-30.15L1009.372,2228.032z"/>
					</g>
				</g>
				<path style="opacity:0.95;fill:#FFFFFF;" d="M1018.693,2231.922c-1.658,0-3.322-0.592-4.647-1.795
					c-2.832-2.565-3.047-6.942-0.48-9.774l137.172-151.332c2.57-2.829,6.947-3.048,9.777-0.48c2.832,2.565,3.047,6.942,0.48,9.774
					l-137.172,151.332C1022.457,2231.155,1020.579,2231.922,1018.693,2231.922z"/>
			</g>
		</g>
		<g>
			
				<linearGradient id="SVGID_00000165223236556277815970000005487078799270913934_" gradientUnits="userSpaceOnUse" x1="2673.1267" y1="2206.333" x2="2994.5383" y2="2206.333">
				<stop  offset="0" style="stop-color:#AA80F9"/>
				<stop  offset="0.9964" style="stop-color:#6165D7"/>
			</linearGradient>
			<path style="fill:url(#SVGID_00000165223236556277815970000005487078799270913934_);" d="M2863.714,2024.548
				c6.585,2.489,107.028,42.434,127.674,147.267c1.668,8.469,17.805,98.537-43.276,162.165
				c-68.492,71.348-200.379,69.58-252.729,9.934c-12.208-13.909-18.649-29.326-22.256-42.278l0,0l13.793-36.646
				c16.83-20.319,39.746-25.134,51.985-28.15c30.17-7.436,52.95,6.003,70.229-8.546c9.561-8.049,11.46-19.635,13.157-29.984
				c5.778-35.251-14.117-56.95-15.566-78.689c-1.083-16.25-6.771-51.858,14.44-75.078
				C2834.596,2029.839,2853.2,2025.835,2863.714,2024.548z"/>
			
				<linearGradient id="SVGID_00000059277906841898448680000010967804691875291286_" gradientUnits="userSpaceOnUse" x1="2549.1072" y1="3357.0857" x2="2590.2749" y2="3393.7046" gradientTransform="matrix(0.9902 -0.14 0.14 0.9902 -102.8428 206.9384)">
				<stop  offset="0" style="stop-color:#444B8C"/>
				<stop  offset="0.9964" style="stop-color:#26264F"/>
			</linearGradient>
			<path style="fill:url(#SVGID_00000059277906841898448680000010967804691875291286_);" d="M2902.851,3192.875
				c1.172-6.453,22.014-12.295,32.333-3.65c5.124,4.291,8.653,12.992,5.688,16.922c-1.078,1.429,3.339,3.944-0.893,3.993
				C2925.939,3210.304,2901.686,3199.289,2902.851,3192.875z"/>
			
				<linearGradient id="SVGID_00000002349918699904097730000002981440508945139084_" gradientUnits="userSpaceOnUse" x1="1663.4969" y1="3393.7571" x2="1663.4969" y2="3322.0391" gradientTransform="matrix(0.9902 -0.14 0.14 0.9902 813.3583 77.4224)">
				<stop  offset="0" style="stop-color:#FFC444"/>
				<stop  offset="0.9964" style="stop-color:#F36F56"/>
			</linearGradient>
			<path style="fill:url(#SVGID_00000002349918699904097730000002981440508945139084_);" d="M2924.696,3195.225l21.434-3.03
				c-9.931-11.956-8.092-50.031-8.092-50.031l-22.795,5.088c0,0,2.597,10.451,7.015,25.867
				C2923.772,3178.396,2924.448,3186.655,2924.696,3195.225z"/>
			
				<linearGradient id="SVGID_00000021097188020799117830000001511086233119946410_" gradientUnits="userSpaceOnUse" x1="2553.2466" y1="3352.4341" x2="2594.4136" y2="3389.0525" gradientTransform="matrix(0.9902 -0.14 0.14 0.9902 -102.8428 206.9384)">
				<stop  offset="0" style="stop-color:#444B8C"/>
				<stop  offset="0.9964" style="stop-color:#26264F"/>
			</linearGradient>
			<path style="fill:url(#SVGID_00000021097188020799117830000001511086233119946410_);" d="M2922.795,3192.584
				c0,0,25.806-5.946,28.598-0.827c2.792,5.119,4.958,18.824-11.414,18.382C2923.606,3209.698,2921.341,3196.925,2922.795,3192.584z
				"/>
			
				<linearGradient id="SVGID_00000167391751774842307130000012672330376440692158_" gradientUnits="userSpaceOnUse" x1="2599.8921" y1="3197.0122" x2="2641.0615" y2="3233.6326">
				<stop  offset="0" style="stop-color:#444B8C"/>
				<stop  offset="0.9964" style="stop-color:#26264F"/>
			</linearGradient>
			<path style="fill:url(#SVGID_00000167391751774842307130000012672330376440692158_);" d="M2608.746,3217.076
				c2.063-6.226,23.517-9.093,32.527,0.91c4.471,4.966,6.749,14.076,3.262,17.551c-1.268,1.266,2.754,4.373-1.443,3.83
				C2629.167,3237.564,2606.694,3223.262,2608.746,3217.076z"/>
			
				<linearGradient id="SVGID_00000060011391998846854560000005474399146740061373_" gradientUnits="userSpaceOnUse" x1="1714.2382" y1="3233.7053" x2="1714.2382" y2="3161.9849" gradientTransform="matrix(1 0 0 1 925.3102 0)">
				<stop  offset="0" style="stop-color:#FFC444"/>
				<stop  offset="0.9964" style="stop-color:#F36F56"/>
			</linearGradient>
			<path style="fill:url(#SVGID_00000060011391998846854560000005474399146740061373_);" d="M2630.048,3222.459h21.647
				c-8.159-13.228-1.009-50.671-1.009-50.671l-23.283,1.848c0,0,1.109,10.711,3.325,26.594
				C2631.487,3205.667,2631,3213.939,2630.048,3222.459z"/>
			
				<linearGradient id="SVGID_00000047743715079352847350000011852567605041694089_" gradientUnits="userSpaceOnUse" x1="-360.4226" y1="3266.5947" x2="-628.8759" y2="2182.7175" gradientTransform="matrix(-1 0 0 1 2275.7473 0)">
				<stop  offset="0" style="stop-color:#444B8C"/>
				<stop  offset="0.9964" style="stop-color:#26264F"/>
			</linearGradient>
			<path style="fill:url(#SVGID_00000047743715079352847350000011852567605041694089_);" d="M2573.945,2403.836
				c-10.027,33.115-24.349,86.563-33.567,153.62c-26.294,191.269,29.593,197.37,19.156,409.32
				c-3.332,67.656,58.612,223.662,64.072,227.107c2.643,0.255,5.51,0.428,8.567,0.336c5.387-0.163,12.983-0.988,21.817-3.637
				c9.813-1.69,45.19-97.513,36.99-154.485c-5.803-40.323-4.12-83.597-0.756-170.147c0.545-14.024,36.426-272.843,36.426-272.843
				l0,0c10.915,95.801,23.467,177.2,34.348,240.311c34.961,202.762,148.636,325.488,154.565,327.456
				c1.171,0.471,11.839,4.346,20.559-1.402c3.882-2.558,5.202-5.86,5.202-5.86c3.041-2.381-0.897-202.435-35.568-352.994
				c-50.328-218.533-28.413-269.667-44.357-367.277C2847.603,2348.879,2573.945,2403.836,2573.945,2403.836z"/>
			
				<linearGradient id="SVGID_00000012463811585624515530000013292868848464412581_" gradientUnits="userSpaceOnUse" x1="2569.812" y1="2418.6079" x2="2880.4773" y2="2066.8936">
				<stop  offset="0" style="stop-color:#AA80F9"/>
				<stop  offset="0.9964" style="stop-color:#6165D7"/>
			</linearGradient>
			<path style="fill:url(#SVGID_00000012463811585624515530000013292868848464412581_);" d="M2777.223,2007.49
				c-33.413-0.982-106.646-9.007-164.419,17.582c-0.899,0.413,19.835,12.994,15.569,17.994c-3.962,4.641-17.55,20.89-29.867,42.855
				c-8.923,15.909-16.976,34.452-25.101,62.091c-14.33,48.741-18.442,90.244-19.816,108.328
				c-7.732,101.693-0.066,148.609,6.892,180.514c30.209,15.518,108.055,43.284,200.807,29.489
				c42.357-6.301,76.257-20.396,100.11-32.979c-24.067-72.871-5.186-111.865,3.723-147.806
				c12.702-51.249,12.907-47.375,23.366-88.085c17.257-67.174,20.088-135.814,8.231-149.86
				C2864.747,2009.741,2807.139,2008.372,2777.223,2007.49z"/>
			
				<linearGradient id="SVGID_00000060735988466434156390000007474622399459538581_" gradientUnits="userSpaceOnUse" x1="2604.0308" y1="3192.3601" x2="2645.1997" y2="3228.98">
				<stop  offset="0" style="stop-color:#444B8C"/>
				<stop  offset="0.9964" style="stop-color:#26264F"/>
			</linearGradient>
			<path style="fill:url(#SVGID_00000060735988466434156390000007474622399459538581_);" d="M2628.534,3219.578
				c0,0,26.384-2.275,28.431,3.185c2.047,5.458,2.275,19.333-13.874,16.604C2626.941,3236.637,2626.486,3223.673,2628.534,3219.578z
				"/>
			<g>
				
					<linearGradient id="SVGID_00000124140759466234567110000000130939090865152951_" gradientUnits="userSpaceOnUse" x1="2640.3823" y1="1890.7889" x2="2863.3325" y2="2171.2888">
					<stop  offset="0" style="stop-color:#FFC444"/>
					<stop  offset="0.9964" style="stop-color:#F36F56"/>
				</linearGradient>
				<path style="fill:url(#SVGID_00000124140759466234567110000000130939090865152951_);" d="M2683.188,1969.183
					c-10.35-17.499-5.738-37.488-4.699-41.807c4.353-18.085,5.971-20.828,9.329-24.654l4.746-5.019c0,0,0.294-0.22,0.607-0.435
					c3.3-2.27,15.624-5.959,18.284-6.093c8.498-0.427,25.792,30.049,35.696,77.011c0.804,1.676,1.599,3.37,2.388,5.082
					c3.609,7.828,6.841,15.56,9.737,23.164c1.887,4.957,6.376,8.457,11.656,8.965c49.599,4.776,56.768,11.018,57.01,14.705
					c0.539,8.191-32.186,17.657-56.795,21.261c-53.672,7.858-108.843-6.297-108.591-16.305c0.098-3.887,8.598-8.826,42.737-14.076
					c7.484-1.151,12.66-8.143,11.6-15.64c-0.418-2.956-0.835-5.91-1.252-8.865
					C2711.943,1985.656,2690.812,1982.075,2683.188,1969.183z"/>
				
					<linearGradient id="SVGID_00000112630325530333433290000013987626292644457653_" gradientUnits="userSpaceOnUse" x1="2713.5591" y1="1858.7802" x2="2795.1904" y2="2142.5461">
					<stop  offset="0" style="stop-color:#311944"/>
					<stop  offset="1" style="stop-color:#893976"/>
				</linearGradient>
				<path style="fill:url(#SVGID_00000112630325530333433290000013987626292644457653_);" d="M2672.392,1888.99
					c3.873,14.335,14.718,27.855,18.818,29.4c0.53,0.2,3.561,1.51,6.71,4.291c0.429,0.378,0.843,0.845,1.269,1.477
					c5.554,8.204-5.986,22.677-2.132,25.985c2.795,2.4,11.519-4.132,13.357-1.906c1.731,2.094-5.071,9.202-3.066,11.729
					c1.514,1.908,5.984-1.398,10.018,1.067c2.01,1.228,1.896,2.656,4.903,7.246c1.699,2.596,3.846,5.36,5.329,6.82
					c7.205,7.102,22.069,6.436,23.873,2.345c0.501-1.14-0.355-1.757-0.427-5.115c0,0-0.067-3.112,1.065-7.033
					c1.618-5.602,7.71-10.922,13.428-17.904c10.588-12.929,12.005-21.922,12.35-24.924c0.122-1.069,0.164-1.863,0.194-2.435
					c0.588-11.483-3.538-27.022-10.838-35.307c-12.231-13.879-28.172-1.492-47.105-13.428
					c-21.844-13.77-18.404-41.469-28.347-41.776C2680.827,1829.182,2665.232,1862.483,2672.392,1888.99z"/>
				
					<linearGradient id="SVGID_00000000217465815372801410000005041202843933087634_" gradientUnits="userSpaceOnUse" x1="2649.7852" y1="1883.3163" x2="2872.7334" y2="2163.8135">
					<stop  offset="0" style="stop-color:#FFC444"/>
					<stop  offset="0.9964" style="stop-color:#F36F56"/>
				</linearGradient>
				<path style="fill:url(#SVGID_00000000217465815372801410000005041202843933087634_);" d="M2701.316,1945.396
					c2.229-5.77,9.618-2.877,11.32,3.365c1.703,6.242-2.622,14.356-8.827,14.689
					C2697.603,1963.782,2698.317,1953.161,2701.316,1945.396z"/>
			</g>
			
				<linearGradient id="SVGID_00000064334991807860593800000010899759494893397688_" gradientUnits="userSpaceOnUse" x1="2581.8545" y1="2429.2449" x2="2892.5203" y2="2077.53">
				<stop  offset="0" style="stop-color:#AA80F9"/>
				<stop  offset="0.9964" style="stop-color:#6165D7"/>
			</linearGradient>
			<path style="opacity:0.3;fill:url(#SVGID_00000064334991807860593800000010899759494893397688_);" d="M2763.517,2376.952
				c-33.344-9.058-53.897,31.109-82.564,25.189c-39.487-8.154-53.561-95.323-57.375-118.948
				c-13.771-85.291,11.908-116.85-11.195-153.933c-5.064-8.129-12.467-16.481-23.585-24.017
				c-5.256,11.752-10.31,25.481-15.392,42.768c-14.33,48.742-18.442,90.245-19.816,108.328
				c-7.732,101.693-0.065,148.61,6.892,180.515c30.209,15.517,108.055,43.284,200.807,29.488
				c38.296-5.697,69.65-17.763,92.945-29.324c-24.703-4.047-40.717-13.309-51.533-23.681
				C2787.478,2398.739,2782.787,2382.187,2763.517,2376.952z"/>
			<g>
				
					<linearGradient id="SVGID_00000165950397874895292120000016772405387623827075_" gradientUnits="userSpaceOnUse" x1="-2107.7087" y1="2164.7749" x2="-2266.6704" y2="2421.9187" gradientTransform="matrix(-0.9999 0.0138 0.0138 0.9999 213.6279 -14.86)">
					<stop  offset="0" style="stop-color:#444B8C"/>
					<stop  offset="0.9964" style="stop-color:#26264F"/>
				</linearGradient>
				<path style="fill:url(#SVGID_00000165950397874895292120000016772405387623827075_);" d="M2534.863,2290.479l-96.72-215.868
					c-1.195-2.666-3.99-4.237-6.887-3.872l-169.121,21.324c-4.515,0.569-7.132,5.411-5.133,9.499l114.037,233.251
					c1.373,2.809,4.521,4.278,7.557,3.528l150.572-37.235L2534.863,2290.479z"/>
				<path style="fill:#FFFFFF;" d="M2508.25,2264.344l-78.314-174.787c-0.967-2.158-3.23-3.431-5.577-3.135l-136.935,17.266
					c-3.657,0.46-5.775,4.382-4.156,7.692l92.335,188.861c1.112,2.275,3.66,3.464,6.118,2.856l121.919-30.148L2508.25,2264.344z"/>
				
					<linearGradient id="SVGID_00000137850950157666847490000005899159373794979217_" gradientUnits="userSpaceOnUse" x1="-2123.9397" y1="2148.2798" x2="-2086.1089" y2="2069.8154" gradientTransform="matrix(-0.9999 0.0138 0.0138 0.9999 213.6279 -14.86)">
					<stop  offset="0" style="stop-color:#AA80F9"/>
					<stop  offset="0.9964" style="stop-color:#6165D7"/>
				</linearGradient>
				<path style="fill:url(#SVGID_00000137850950157666847490000005899159373794979217_);" d="M2401.543,2088.5l-6.205-14.011
					c-0.863-1.947-2.892-3.105-5.008-2.856l-70.374,8.277c-3.267,0.384-5.215,3.837-3.855,6.832l6.934,15.255
					c0.888,1.954,2.953,3.093,5.079,2.803l69.646-9.521C2400.962,2094.841,2402.852,2091.456,2401.543,2088.5z"/>
				
					<linearGradient id="SVGID_00000059311945856636776820000011485644659645467789_" gradientUnits="userSpaceOnUse" x1="-2155.3577" y1="2125.0037" x2="-2025.7151" y2="2125.0037" gradientTransform="matrix(-1 0 0 1 277.0063 0)">
					<stop  offset="0" style="stop-color:#444B8C"/>
					<stop  offset="0.9964" style="stop-color:#26264F"/>
				</linearGradient>
				<path style="fill:url(#SVGID_00000059311945856636776820000011485644659645467789_);" d="M2305.559,2135.76
					c0.111-0.002,0.213-0.014,0.323-0.027l124.034-15.914c1.536-0.195,2.622-1.601,2.426-3.132
					c-0.203-1.541-1.657-2.604-3.137-2.419l-124.033,15.914c-1.535,0.197-2.622,1.602-2.426,3.132
					C2302.928,2134.746,2304.159,2135.78,2305.559,2135.76z"/>
				
					<linearGradient id="SVGID_00000145771096771081068660000002375525205177038752_" gradientUnits="userSpaceOnUse" x1="-2161.0955" y1="2136.9219" x2="-2032.0815" y2="2136.9219" gradientTransform="matrix(-1 0 0 1 277.0063 0)">
					<stop  offset="0" style="stop-color:#444B8C"/>
					<stop  offset="0.9964" style="stop-color:#26264F"/>
				</linearGradient>
				<path style="fill:url(#SVGID_00000145771096771081068660000002375525205177038752_);" d="M2311.923,2148.284
					c0.115-0.002,0.235-0.014,0.35-0.027l123.41-17.12c1.536-0.208,2.604-1.624,2.393-3.164c-0.208-1.53-1.608-2.595-3.159-2.387
					l-123.409,17.12c-1.535,0.209-2.606,1.624-2.393,3.165C2309.309,2147.28,2310.533,2148.303,2311.923,2148.284z"/>
				
					<linearGradient id="SVGID_00000088851947619122588670000000629421702051461808_" gradientUnits="userSpaceOnUse" x1="-2167.0769" y1="2159.5664" x2="-2094.1758" y2="2159.5664" gradientTransform="matrix(-1 0 0 1 277.0063 0)">
					<stop  offset="0" style="stop-color:#444B8C"/>
					<stop  offset="0.9964" style="stop-color:#26264F"/>
				</linearGradient>
				<path style="fill:url(#SVGID_00000088851947619122588670000000629421702051461808_);" d="M2374.019,2167.974
					c0.142-0.002,0.283-0.015,0.426-0.038l67.294-11.21c1.531-0.251,2.562-1.699,2.305-3.228c-0.251-1.519-1.722-2.56-3.222-2.3
					l-67.296,11.211c-1.529,0.251-2.56,1.7-2.304,3.229C2371.449,2167.014,2372.661,2167.993,2374.019,2167.974z"/>
			</g>
			
				<linearGradient id="SVGID_00000132779337790436084010000005304839477880267423_" gradientUnits="userSpaceOnUse" x1="-2074.0789" y1="2266.3999" x2="-2112.2217" y2="2328.1016" gradientTransform="matrix(-0.9999 0.0138 0.0138 0.9999 213.6279 -14.86)">
				<stop  offset="0" style="stop-color:#FFC444"/>
				<stop  offset="0.9964" style="stop-color:#F36F56"/>
			</linearGradient>
			<path style="fill:url(#SVGID_00000132779337790436084010000005304839477880267423_);" d="M2343.129,2277.728
				c0,0-27.56-18.744-30.773-31.958c-3.214-13.214-2.407-38.077-2.407-38.077l16.064,35.025c0,0,7.762-2.225,11.106-13.766
				c3.344-11.544,8.996-0.97,6.713,7.749C2341.549,2245.42,2343.129,2277.728,2343.129,2277.728z"/>
			
				<linearGradient id="SVGID_00000018955454998962835460000005676656959088651150_" gradientUnits="userSpaceOnUse" x1="2435.7441" y1="2300.187" x2="2746.4092" y2="1948.473">
				<stop  offset="0" style="stop-color:#AA80F9"/>
				<stop  offset="0.9964" style="stop-color:#6165D7"/>
			</linearGradient>
			<path style="fill:url(#SVGID_00000018955454998962835460000005676656959088651150_);" d="M2612.804,2025.073
				c-28.876,4.364-83.919,28.62-113.381,67.522c-54.508,71.972-33.676,147.567-79.333,174.489
				c-13.056,7.701-35.975,13.953-77.354-0.682l-15.86,8.436c0,0-19.371,98.53,100.273,102.214
				C2546.792,2380.74,2606.404,2232,2606.404,2232l56.151-182.039L2612.804,2025.073z"/>
		</g>
	</g>
</g>
</svg>
