<?xml version="1.0" encoding="utf-8"?>
<!-- Generator: Adobe Illustrator 27.5.0, SVG Export Plug-In . SVG Version: 6.00 Build 0)  -->
<svg version="1.1" xmlns="http://www.w3.org/2000/svg" xmlns:xlink="http://www.w3.org/1999/xlink" x="0px" y="0px"
	 viewBox="0 0 1502 1122" style="enable-background:new 0 0 1502 1122;" xml:space="preserve">
<g id="background">
	<g>
		<g>
			<rect style="fill:#FFFFFF;" width="1502" height="1122"/>
		</g>
	</g>
</g>
<g id="shadow">
	<path style="opacity:0.12;fill:#606060;" d="M1367.684,957.31c-95.104-52.259-427.968-20.903-427.968-20.903
		c-23.751,3.2-44.235,6.367-61.767,9.491c-0.004,0-96.345,15.332-142.707,8.799c-37.103-5.228-138.911-12.125-192.726,1.397
		c-17.943-4.251-42.788-8.631-75.92-13.095c0,0-254.782-24-327.576,16c-72.795,40,158.329,48,224.754,51
		c31.769,1.435,121.19-5.137,174.993-16.541c41.941,8.034,118.414,6.771,159.621,1.739c64.18-7.837,96.407,0.418,168.823,11.308
		c70.582,12.299,169.382,19.126,206.839,17.435C1160.832,1020.021,1462.788,1009.569,1367.684,957.31z"/>
</g>
<g id="object">
	<g>
		<g>
			<path style="fill:#FFBC57;" d="M567.684,194.713c-6.618-9.8-14.137-33.331,4.781-52.248c5.335-5.336,9.959-9.324,13.674-12.528
				c10.896-9.397,13.824-11.923,11.9-27.317c-1.236-9.887,0.626-16.841,5.536-20.668c6.597-5.141,15.271-1.988,16.237-1.612
				l-3.625,9.32c-1.076-0.4-4.656-1.253-6.482,0.193c-1.842,1.458-2.478,5.66-1.744,11.527c2.589,20.708-3.762,26.186-15.291,36.13
				c-3.777,3.258-8.06,6.951-13.135,12.026c-17.751,17.751-4.144,38.711-3.555,39.594L567.684,194.713z"/>
			<path style="fill:#558AB2;" d="M676.961,192.62l-9.922-1.24c0.071-0.573,1.861-14.108,11.325-21.284
				c4.856-3.682,10.699-5.042,17.378-4.04c5.079,0.762,8.876,0.223,10.693-1.515c1.904-1.823,1.604-4.913,1.601-4.944l9.92-1.258
				c0.107,0.805,0.893,8.017-4.463,13.287c-4.216,4.148-10.681,5.601-19.235,4.319c-3.96-0.593-7.187,0.099-9.852,2.12
				C678.361,182.648,676.974,192.522,676.961,192.62z"/>
			<path style="fill:#8C0303;" d="M532.943,95.595l5.832-8.122c0.469,0.336,11.503,8.378,13.282,20.121
				c0.913,6.026-0.685,11.808-4.757,17.196c-3.097,4.097-4.439,7.69-3.78,10.117c0.691,2.544,3.549,3.757,3.577,3.769l-3.637,9.315
				c-0.758-0.29-7.469-3.047-9.538-10.271c-1.628-5.686,0.185-12.059,5.401-18.96c2.414-3.195,3.348-6.36,2.847-9.666
				C541.033,101.592,533.023,95.654,532.943,95.595z"/>
			<path style="fill:#FFBC57;" d="M537.63,39.647l-0.775-9.969c0.575-0.045,14.195-1.006,23.123,6.826
				c4.581,4.019,7.086,9.47,7.444,16.214c0.272,5.129,1.562,8.74,3.629,10.172c2.168,1.5,5.134,0.585,5.164,0.576l3.222,9.466
				c-0.767,0.267-7.674,2.483-13.912-1.707c-4.909-3.298-7.63-9.34-8.089-17.978c-0.213-3.999-1.538-7.021-4.053-9.226
				C547.68,39.019,537.729,39.64,537.63,39.647z"/>
			<path style="fill:#FFBC57;" d="M434.263,176.403l8.246,5.655c-0.326,0.476-8.128,11.681-19.829,13.714
				c-6.005,1.043-11.82-0.43-17.294-4.385c-4.163-3.008-7.784-4.272-10.196-3.561c-2.528,0.746-3.679,3.629-3.691,3.658
				l-9.391-3.435c0.274-0.764,2.885-7.533,10.063-9.757c5.649-1.751,12.06-0.076,19.072,4.99c3.246,2.344,6.431,3.21,9.726,2.638
				C428.443,184.621,434.207,176.485,434.263,176.403z"/>
			
				<rect x="590.215" y="170.5" transform="matrix(0.3387 -0.9409 0.9409 0.3387 233.9452 683.8716)" style="fill:#8C0303;" width="26.571" height="9.999"/>
			
				<rect x="642.215" y="151.5" transform="matrix(0.8552 -0.5184 0.5184 0.8552 13.8204 362.4607)" style="fill:#FFBC57;" width="26.57" height="10"/>
			
				<rect x="574.215" y="351.5" transform="matrix(0.8552 -0.5184 0.5184 0.8552 -99.7033 356.1803)" style="fill:#FFBC57;" width="26.57" height="10"/>
			
				<rect x="639.5" y="404.215" transform="matrix(0.926 -0.3775 0.3775 0.926 -109.9237 274.2121)" style="fill:#8C0303;" width="10" height="26.571"/>
			
				<rect x="337.5" y="124.215" transform="matrix(0.6591 -0.752 0.752 0.6591 13.348 304.4475)" style="fill:#8C0303;" width="10" height="26.571"/>
			
				<rect x="491.5" y="117.214" transform="matrix(0.8339 -0.5519 0.5519 0.8339 10.4371 295.6827)" style="fill:#558AB2;" width="10.001" height="26.571"/>
			
				<rect x="675.214" y="239.5" transform="matrix(0.9086 -0.4176 0.4176 0.9086 -39.1957 309.8566)" style="fill:#8C0303;" width="26.571" height="10"/>
			<path style="fill:#8C0303;" d="M680.97,113.552l-9.939-1.104c0.099-0.887,2.719-21.784,29.113-26.374
				c9.815-1.707,9.748-3.698,9.6-8.06c-0.126-3.707-0.316-9.309,5.483-13.175l5.547,8.32c-0.973,0.648-1.152,1.075-1.036,4.515
				c0.248,7.283-0.909,15.3-17.881,18.251C682.775,99.245,680.985,113.409,680.97,113.552z"/>
			<path style="fill:#558AB2;" d="M833.287,140.572l-8.574-5.145c2.808-4.714,4.523-10.825,3.459-12.33
				c-0.315-0.446-2.401-1.352-8.191-0.194c-4.074,0.815-9.895,1.454-13.403-2.39c-3.999-4.378-2.086-10.834,0.129-18.309
				c2.795-9.433,6.273-21.172-0.662-30.147c-3.709-4.8-7.877-7.341-12.741-7.77c-10.511-0.926-20.83,8.313-20.933,8.407l-6.749-7.38
				c0.548-0.502,13.572-12.271,28.496-10.994c7.716,0.661,14.391,4.572,19.839,11.623c10.064,13.024,5.415,28.718,2.338,39.103
				c-0.847,2.858-1.961,6.617-2.06,8.473c0.663,0.026,1.841-0.032,3.786-0.421c8.918-1.784,15.087-0.358,18.326,4.24
				C841.94,125.276,834.779,138.085,833.287,140.572z"/>
			<path style="fill:#558AB2;" d="M419.489,134.157c-0.215-0.449-5.202-11.116,0.207-20.659c4.03-7.111,12.387-11.309,24.837-12.476
				c5.168-0.484,8.613-1.669,9.963-3.425c1.591-2.071,0.893-6.203,0.156-10.577c-1.273-7.549-3.197-18.957,9.296-24.579
				c7.152-3.219,18.271-4.412,30.622,8.184c6.723,6.857,10.734,14.804,10.901,15.139l-8.94,4.478
				c-0.13-0.257-13.101-25.602-28.48-18.683c-5.005,2.252-4.956,5.394-3.539,13.797c1.013,6.002,2.159,12.805-2.087,18.333
				c-3.176,4.132-8.723,6.517-16.959,7.289c-8.842,0.829-14.735,3.388-17.043,7.402c-2.858,4.969,0.07,11.425,0.1,11.49
				L419.489,134.157z"/>
			<g>
				<polygon style="fill:#BAC6A7;" points="337.506,424.179 408,415 460.894,348.714 479.091,365.587 424,445 352.106,462.776 
					328.481,443.109 329.952,423.927 				"/>
				<g>
					<g>
						<polygon style="fill:#514943;" points="232.604,966.066 230.194,975.463 245.703,989.983 257.073,983.147 250.523,971.189 
							235.014,956.669 						"/>
						<polygon style="fill:#6B5848;" points="277.198,674.353 269.88,702.893 280.767,806.401 232.443,962.77 249.259,971.578 
							319.691,822.435 333.995,778.112 348.287,681.858 						"/>
					</g>
					<g>
						<polygon style="fill:#6B5848;" points="408.276,701.21 397.514,974.797 380.441,976.493 360.19,803.82 317.059,685.494 						
							"/>
						<polygon style="fill:#514943;" points="380.328,974.35 381.29,984.043 400.716,991.903 408.985,981.293 398.79,972.516 						
							"/>
					</g>
					<g>
						<path style="fill:#BAC6A7;" d="M264.345,643.544c14.654-96.296,9.42-166.424,10.18-185.68
							c0.759-19.256,14.274-29.249,14.281-29.252c5.93-1.321,11.092-5.14,17.081-6.647c40.516-10.194,62.614,20.742,77.781,54.109
							c18.687,41.111,34.386,83.593,47.078,126.93c11.139,38.034,22.303,76.411,26.975,115.883
							c1.928,16.287,3.536,31.732-14.296,38.917c-28.414,11.449-60.346,11.2-90.358,14.871
							c-34.474,4.217-68.995,7.298-103.699,8.741C231.252,782.168,249.691,739.84,264.345,643.544z"/>
					</g>
				</g>
				<path style="fill:#FFF5CC;" d="M297.599,425.519c0,0,1.277,30.334,19.478,31.292c18.201,0.958,28.738-7.663,27.78-18.201
					c-0.958-10.537-6.165-15.384-6.165-15.384S316.438,413.385,297.599,425.519z"/>
				<polygon style="fill:#B26650;" points="561.971,184.809 473,147.752 470.069,405.458 650.943,221.867 				"/>
				<polygon style="fill:#C9D6B5;" points="452,419 399.661,483.745 301,438 276.214,443.41 275.155,455.818 279,488 404,533 
					434,518 474,428 				"/>
				<g>
					<path style="fill:#563E2E;" d="M362.099,395.504c-9.704-4.529-13.291-13.654-14.6-19.105c-0.219-1.539-0.464-2.996-0.732-4.373
						c0-0.008-0.001-0.024-0.001-0.024s-0.001,0.008-0.001,0.01c-3.74-19.181-11.789-23.004-11.789-23.004l-0.006,0.001
						c-2.833-2.316-6.156-4.029-9.712-4.888c-5.466,4.912-8.877,12.047-9.271,19.393l-0.801,0.009
						c3.348,0.08,6.646,0.847,9.717,2.164c2.344,16.568,5.914,42.931,6.043,50.63c0.192,11.494,2.908,11.706,10.636,14.225
						c4.806,1.566,9.776-0.341,12.849-2.008c0,0,0.001,0,0.002,0C364.966,426.122,376.468,402.21,362.099,395.504z"/>
					<g>
						<path style="fill:#EACDB0;" d="M339.232,372.022c-12.143-26.449-45.57-13.053-49.917,11.888
							c-2.472,14.183,5.052,38.832,21.985,39.064c0.853,2.397,2.316,6.923,4.599,8.1c2.473,1.274,8.45-2.01,10.813-3.215
							c0.655-0.334,1.332-0.715,1.71-1.345c0.474-0.79,0.158-2.512-0.297-4.394c1.809-0.583,3.605-1.41,5.367-2.518
							c7.394-4.648,11.371-13.563,11.761-22.3C345.642,388.566,342.881,379.97,339.232,372.022z"/>
					</g>
					<path style="fill:#563E2E;" d="M316.612,367.365c19.078-6.878,13.621-21.798,13.621-21.798
						c-15.634-22.435-49.075-7.867-49.075-7.867s-17.463,9.611-20.761,30.447c-0.3,1.893-0.521,3.672-0.687,5.356
						c-0.732,5.284-1.419,16.523-1.006,22.02c0.054,6.719-0.402,11.798-5.329,18.105c-9.002,11.523,1.995,16.61,6.435,19.999
						c4.44,3.389-4.258,29.404,28.65,19.596c21.484-11.088,26.522-11.128,18.565-22.802l0,0c-3.395-5.64-11.149-13.33-14.664-23.334
						C286.818,391.31,297.535,374.243,316.612,367.365z"/>
				</g>
				<polygon style="fill:#EACDB0;" points="454.417,419.989 463,403 483,400 483,424 471.716,427.065 				"/>
			</g>
			<g>
				<g>
					<path style="fill:#FFBC57;" d="M313.982,333.888c0,0-16.841,28.962-54.716,44.112l-24.408-87.533L313.982,333.888z"/>
					<polygon style="fill:#B26650;" points="313.975,334.233 254.317,360.251 251.15,348.895 303.088,327.91 					"/>
					<polygon style="fill:#B26650;" points="293.231,322.501 248.442,339.183 245.625,329.08 281.408,316.013 					"/>
					<polygon style="fill:#B26650;" points="269.428,309.438 242.745,318.751 240.148,309.438 259,303.715 					"/>
					<polygon style="fill:#B26650;" points="250.375,298.982 238.119,302.162 234.858,290.467 					"/>
					<g>
						<g style="opacity:0.1;">
							<path d="M310.364,339.183c0,0-40.532,25.338-63.069-4.114L259.266,378C259.266,378,289.92,367.699,310.364,339.183z"/>
						</g>
					</g>
				</g>
				<path style="fill:#8C0303;" d="M219.894,299.231l11.13-3.906l-6.074,8.685l6.174,3.532l4.923-10.764l1.422,11.647l6.953-1.497
					l-3.483-11.151l8.096,4.148l2.657-6.598l-9.438-2.839l6.948-4.987l-4.654-5.379l-7.115,7.383L238.388,277h-7.113l0.922,10.142
					l-7.561-6.823l-4.268,5.69l7.716,4.761l-9.928,1.563L219.894,299.231z"/>
			</g>
			<polygon style="fill:#8E3976;" points="472,192 535.293,173.697 585.749,194.713 472.042,232.006 			"/>
			<polygon style="fill:#8E3976;" points="472,254.592 617.7,208.02 651,222 472,282 			"/>
			<polygon style="fill:#8E3976;" points="471.189,307.004 610.877,262.535 546.777,327.598 470.884,354.332 			"/>
			
				<rect x="339.5" y="233.215" transform="matrix(0.001 -1 1 0.001 97.6397 590.7419)" style="fill:#8C0303;" width="10" height="26.57"/>
			<polygon style="fill:#F9CD5F;" points="471.957,239.505 596.255,199.089 586,195 472,232 			"/>
			<polygon style="fill:#F9CD5F;" points="472,282 651,222 637.978,235.026 472,292 			"/>
			<path style="fill:#F9CD5F;" d="M470.884,354.332l75.893-26.734c0,0-12.566,13.322-12.672,12.862C534,340,471,363,471,363
				L470.884,354.332z"/>
			<g style="opacity:0.1;">
				<path d="M651,222c0,0-88.144,80.987-179.572,63.993L470,405L651,222z"/>
			</g>
		</g>
		<g>
			<g>
				<path style="fill:#2E4661;" d="M617.929,803.46c0,0,33.879,32.596,0.313,80.172c-33.566,47.575-32.467,42.303-32.467,42.303
					l-19.641-7.696L592,858l-18.008-44.689L617.929,803.46z"/>
				<path style="fill:#2E4661;" d="M586.009,794.983c0,0-2.227,73.512-53.78,80.602c-51.553,7.09-64.589,2.288-64.589,2.288
					l-2.613-14.771c0,0,72.426-17.6,54.974-53.102l17.872-11.578L586.009,794.983z"/>
				<polygon style="fill:#8C9498;" points="582,924 590.919,938.666 583.81,944.536 567,930 571,920 				"/>
				<polygon style="fill:#8C9498;" points="467.351,876.243 459,891 452,889 455,867 465.353,864.948 				"/>
				<path style="fill:#B26650;" d="M546.794,645.134c0,0,23.514-12.612,48.045,24.242c24.53,36.854,47.882,105.195,39.796,139.482
					c-8.086,34.287-50.248,1.191-81.389,8.623c-31.141,7.432-48.502,0.754-34.959-48.527c13.543-49.281,11.02-77.612,9.276-91.646
					C525.819,663.274,532.76,646.878,546.794,645.134z"/>
				<g>
					<g>
						<path style="fill:#EACDB0;" d="M554.651,586.057c-22.094-22.269-50.96,3.679-46.116,30.534
							c2.755,15.272,19.506,37.43,36.73,31.389c1.751,2.109,4.91,6.149,7.657,6.494c2.975,0.373,7.807-5.167,9.752-7.261
							c0.539-0.581,1.083-1.217,1.232-1.996c0.187-0.975-0.771-2.601-1.929-4.338c1.615-1.26,3.126-2.763,4.499-4.538
							c5.761-7.445,6.482-17.942,3.638-26.929C567.27,600.425,561.29,592.748,554.651,586.057z"/>
					</g>
					<path style="fill:#5C3C30;" d="M531.951,584.884c0,0-22.266,12.472-19.558,22.427c4.071,14.965,5.808,25.278,9.224,33.906
						l-19.647-5.411l-17.537-25.164c0,0-4.238-23.437,6.624-30.668c10.862-7.231,34.665-17.983,34.665-17.983l20.538,0.827
						l13.665-4.787l6.556,43.119C566.481,601.148,552.225,572.953,531.951,584.884z"/>
				</g>
				<path style="fill:#B26650;" d="M537.637,648.914c0,0-28.637,19.086-47.637,2.086s-25-46-25-46l-13,5c0,0,6,67,25,76s55,6,55,6
					S553.273,677.827,537.637,648.914z"/>
				<path style="fill:#B26650;" d="M564,645c2-1,48-26,22-65s-26-39-26-39l15-9c0,0,48,36,50,68s-32,74-32,74L564,645z"/>
				<path style="fill:#EACDB0;" d="M563.86,538.684L557,535l5-15l7,2c0,0,4.882,11.471,3.941,11.235
					C572,533,563.86,538.684,563.86,538.684z"/>
				<polygon style="fill:#EACDB0;" points="465,605 468,600 456,591 452,600 453.776,609.317 				"/>
			</g>
			<g>
				<g>
					<path style="fill:#FFBC57;" d="M558.037,559.095c0,0-27.11,23.851-71.004,26.397l4.957-97.819L558.037,559.095z"/>
					<polygon style="fill:#B26650;" points="557.912,559.445 488.039,565.658 488.682,552.967 548.944,549.262 					"/>
					<polygon style="fill:#B26650;" points="540.716,540.364 489.232,542.114 489.804,530.824 530.847,529.692 					"/>
					<polygon style="fill:#B26650;" points="520.847,518.878 490.389,519.282 490.916,508.874 512.143,509.466 					"/>
					<polygon style="fill:#B26650;" points="504.943,501.68 491.328,500.743 491.99,487.673 					"/>
					<g>
						<g style="opacity:0.1;">
							<path d="M552.53,563.271c0,0-50.091,12.053-63.066-25.755l-2.431,47.976C487.033,585.493,521.889,585.436,552.53,563.271z"/>
						</g>
					</g>
				</g>
				<path style="fill:#8C0303;" d="M473.699,491.519l12.712-0.19l-9.176,6.803l5.104,5.72l8.71-9.321l-2.526,12.391l7.62,0.845
					l0.249-12.589l6.858,7.006l4.97-5.837l-8.678-6.126l8.806-2.724l-2.919-7.089l-9.796,5.116l4.565-10.411l-7.271-2.43
					l-2.523,10.683l-5.397-9.558l-6.307,4.359l6.261,7.503l-10.683-1.795L473.699,491.519z"/>
			</g>
		</g>
		<g>
			<path style="fill:#A1BDCC;" d="M1201.26,383.271C1200,383,1176,389,1176,389l-62,47h-85l-4,24l103,20L1201.26,383.271z"/>
			<g>
				<g>
					<polygon style="fill:#8C9498;" points="1074.395,619.249 1057.854,772.622 1067.75,973.376 1089.999,975.515 1121.617,794.196 
						1169.628,614.453 					"/>
				</g>
				<polygon style="fill:#3A3029;" points="1246.15,975.96 1229.208,994.644 1235.215,1003.55 1269.473,991.327 1267.111,973.224 
									"/>
				<polygon style="fill:#8C9498;" points="1164.296,687.935 1199.478,834.094 1239.658,979.115 1269.28,973.808 1248.192,820.677 
					1247.584,676.176 1202.882,662.046 				"/>
				<path style="fill:#A1BDCC;" d="M1205.734,381.28c-0.004,0.002-41.987,14.753-84.285,86.203
					c-43.072,72.758-65.791,177.631-65.791,177.631s196.055,86.157,200.393,50.981c0,0,76.053-273.782-13.107-303.401
					C1238.892,391.348,1208.395,380.127,1205.734,381.28z"/>
				<path style="fill:#FFFFFF;" d="M1216.409,383.271c-24.922,33.779-49.359,74.32-74.659,107.82
					c-14.991,19.85-20.927,43.028-28.22,66.352c-7.251,23.188-14.502,46.377-21.753,69.565c-3.064,9.797-6.127,19.594-9.191,29.392
					c0,0,83.326,30.51,83.326,30.51c2.236-29.736,3.739-59.531,6.527-89.222c2.571-27.384,3.787-58.548,15.32-83.905
					c5.614-12.343,11.417-24.63,17.094-36.955c10.415-22.613,18.511-46.397,29.126-68.917c0.742-1.574,2.429-15.925,2.32-17.716
					L1216.409,383.271z"/>
				<g>
					<path style="fill:#EACDB0;" d="M1214.372,388.229c6.875,1.122,13.751,2.244,20.626,3.366c1.497-5.35,2.565-10.82,3.191-16.341
						c6.106-0.474,13.343-1.698,15.872-7.276c0.797-1.757,0.98-3.721,1.152-5.642c0.713-7.943,1.426-15.886,2.138-23.829
						c0.246-2.747,0.485-5.579-0.344-8.21c-1.453-4.617-5.856-7.641-10.251-9.67c-11.214-5.177-24.707-6.046-35.877-0.776
						c-2.973,1.403-5.824,3.282-7.691,5.987c-2.879,4.171-3.002,9.587-3.021,14.655c-0.018,4.678-0.036,9.357-0.054,14.035
						c-0.021,5.381,0.361,11.606,4.704,14.783c2.306,1.687,5.421,2.204,7.355,4.307
						C1215.584,377.326,1213.402,383.286,1214.372,388.229z"/>
					<polygon style="fill:#3A3029;" points="1190.497,328.22 1200.505,355.782 1200.823,331.657 					"/>
					<path style="fill:#3A3029;" d="M1169.039,294.929c1.251-5.243,3.381-10.319,5.681-14.793c3.953-7.687,14.554-8.802,23.043-7.17
						c18.333,3.525,37.87-0.028,53.78,10.933c9.094,6.266,22.36,10.71,30.108,18.198c3.235,3.127,5.386,7.239,6.775,11.518
						c4.814,14.827,0.211,32.272-11.292,42.793c-2.581,2.36-5.454,4.38-8.408,6.254c-6.113,3.878-13.478,8.716-20.508,8.883
						c1.401-5.876,11.622-22.857,8.416-28.835c-5.088-9.485-21.872-11.126-31.192-11.609c-10.166-0.528-20.56,3.999-30.489,2.911
						c-7.144-0.783-15.008-6.486-19.899-11.591C1167.389,314.422,1166.779,304.402,1169.039,294.929z"/>
				</g>
				<polygon style="fill:#3A3029;" points="1067.533,972.919 1046.996,985.054 1049.609,994.174 1084.791,990.672 1086.692,975.197 
									"/>
			</g>
			<g>
				<g>
					<path style="fill:#FFBC57;" d="M1224.991,275.59c0,0,20.009,34.41,65.009,52.41l29-104L1224.991,275.59z"/>
					<polygon style="fill:#B26650;" points="1225,276 1295.88,306.912 1299.643,293.42 1237.934,268.487 					"/>
					<polygon style="fill:#B26650;" points="1249.646,262.06 1302.86,281.88 1306.207,269.878 1263.693,254.352 					"/>
					<polygon style="fill:#B26650;" points="1277.927,246.54 1309.629,257.606 1312.715,246.54 1290.316,239.741 					"/>
					<polygon style="fill:#B26650;" points="1300.564,234.117 1315.125,237.895 1319,224 					"/>
					<g style="opacity:0.1;">
						<path d="M1229.29,281.88c0,0,48.157,30.105,74.933-4.888L1290,328C1290,328,1253.579,315.761,1229.29,281.88z"/>
					</g>
				</g>
				<path style="fill:#8C0303;" d="M1338.844,226.218l-11.796-1.857l9.167-5.656l-5.071-6.761l-8.983,8.107l1.096-12.05h-8.451
					l1.135,12.48l-8.453-8.772l-5.529,6.391l8.255,5.925L1299,227.396l3.157,7.839l9.619-4.928l-4.139,13.249l8.262,1.779
					l1.689-13.838l5.849,12.789l7.335-4.197l-7.216-10.319l13.224,4.641L1338.844,226.218z"/>
			</g>
			<g>
				<g>
					<g>
						<path style="fill:#558AB2;" d="M1085.264,263.195c-1.204,7.274-6.705,12.89-12.187,17.525
							c-36.467,30.832-109.14,55.33-144.742,19.317c5.038,0.328,17.503,3.642,27.872,4.038
							c24.623,0.942,45.973-18.995,63.986-37.203c11.043-11.162,22.393-48.187,38.711-49.475
							C1074.474,216.167,1087.666,248.689,1085.264,263.195z"/>
						<path style="fill:#6194C1;" d="M947.806,250.867c16.02-19.424,30.297-30.841,48.359-43.11
							c18.062-12.269,40.219-19.407,60.861-14.377c2.453,0.598,4.941,1.402,6.862,3.104c2.194,1.945,3.404,4.835,4.544,7.624
							c6.298,15.408,20.305,37.415,17.326,56.013c-34.907-12.173-75.491-9.236-110.093,5.236
							c-25.831,10.803-46.288,37.297-48.59,36.688C905.169,296.253,940.268,260.007,947.806,250.867z"/>
					</g>
					<g>
						<path style="fill:#558AB2;" d="M787.738,220.654c-1.128,7.286,2.343,14.34,6.103,20.455
							c25.01,40.681,86.393,86.655,131.464,63.566c-4.888-1.262-17.764-2.008-27.738-4.871
							c-23.685-6.797-37.738-32.406-49.162-55.329c-7.003-14.053-6.22-52.771-21.318-59.092
							C812.679,179.35,789.988,206.123,787.738,220.654z"/>
						<path style="fill:#6194C1;" d="M922.168,251.883c-9.15-23.457-19.147-38.762-32.472-56.059
							c-13.325-17.297-32.144-31-53.324-32.67c-2.517-0.199-5.132-0.212-7.488,0.805c-2.692,1.162-4.744,3.53-6.698,5.823
							c-10.796,12.669-30.977,29.2-33.957,47.797c36.963-0.659,74.598,14.809,102.947,39.365
							c21.163,18.332,32.32,49.89,34.697,50.031C948.494,308.316,926.474,262.92,922.168,251.883z"/>
					</g>
				</g>
				<g>
					
						<rect x="684.628" y="302.575" transform="matrix(0.9874 0.1582 -0.1582 0.9874 88.1157 -136.4593)" style="fill:#FDE18D;" width="433.302" height="365.455"/>
					
						<rect x="676.612" y="304.294" transform="matrix(0.9874 0.1582 -0.1582 0.9874 67.054 -141.5751)" style="fill:#F9CD5F;" width="492.544" height="92.287"/>
				</g>
				<polygon style="opacity:0.1;" points="1129.508,430.271 933.599,398.886 912.798,394.986 912.711,395.54 719.883,364.648 
					910.285,410.845 870,665 907,671 946,420 1124.301,462.771 				"/>
				<path style="fill:#6194C1;" d="M895.176,669.382l-52.951-8.483l58.533-365.37c0.593-3.704,3.968-6.243,7.538-5.671l40.024,6.412
					c3.57,0.572,5.983,4.038,5.389,7.742L895.176,669.382z"/>
			</g>
			<polygon style="opacity:0.1;" points="1012,578 1105.901,577.631 1113.13,532.504 1018,557 			"/>
			<path style="fill:#ABC9D9;" d="M1258,401c0,0-18.344,6.373-19.672,9.686C1237,414,1175,511,1175,511l-128.016,30.796L1053,571
				l118-13l43-3l69-100l-2.291-35.18L1258,401z"/>
			<polygon style="fill:#EACDB0;" points="1048,548 1021,548 1003,566 1012,578 1052.491,568.529 			"/>
		</g>
		<polygon style="fill:#EACDB0;" points="461.753,349.304 462.039,331.466 478.215,328 485.148,340.71 480.526,345.332 
			473.593,336.088 471,344.173 470.846,357.725 		"/>
	</g>
</g>
</svg>
