<svg width="512" height="512" viewBox="0 0 512 512" fill="none" xmlns="http://www.w3.org/2000/svg">
<g clip-path="url(#clip0_128_2)">
<path d="M227.195 -0.517601C228.236 -0.528115 228.236 -0.528115 229.297 -0.538841C231.573 -0.556346 233.849 -0.544826 236.125 -0.531273C237.716 -0.53397 239.308 -0.537854 240.899 -0.542869C244.228 -0.548754 247.556 -0.540234 250.885 -0.521507C255.142 -0.498717 259.398 -0.511846 263.655 -0.535797C266.939 -0.550282 270.223 -0.545636 273.507 -0.535286C275.076 -0.532626 276.646 -0.535861 278.215 -0.545204C280.412 -0.555416 282.608 -0.539807 284.805 -0.517601C286.052 -0.514418 287.3 -0.511236 288.585 -0.507957C293.813 0.26964 296.874 2.74356 300.341 6.6135C302.6 11.226 302.567 15.1126 302.539 20.1836C302.557 21.6442 302.557 21.6442 302.575 23.1343C302.61 26.2355 302.619 29.3361 302.625 32.4375C302.641 35.5351 302.664 38.6325 302.697 41.73C302.716 43.6532 302.726 45.5765 302.724 47.4998C302.772 53.6163 302.887 59.289 306.801 64.3098C309.228 66.1754 311.288 67.0847 314.191 68.0429C315.21 68.3905 316.228 68.7381 317.278 69.0962C318.362 69.4563 319.446 69.8164 320.562 70.1875C329.671 73.3034 338.34 76.7472 346.809 81.3445C351.031 83.5237 354.293 84.6799 359.038 83.7033C368.505 80.3095 375.948 70.2051 382.812 63.1875C385.23 60.7169 387.654 58.253 390.082 55.7929C390.907 54.943 390.907 54.943 391.749 54.076C395.904 49.8676 398.544 48.8458 404.375 48.75C405.779 48.7113 405.779 48.7113 407.211 48.6719C412.608 49.3068 416.033 52.7815 419.759 56.4997C420.673 57.4076 421.587 58.3154 422.529 59.2507C423.513 60.2385 424.497 61.2265 425.48 62.2148C426.5 63.2326 427.519 64.25 428.539 65.2672C430.669 67.3949 432.796 69.5261 434.921 71.6599C437.641 74.3915 440.37 77.114 443.102 79.8339C445.206 81.9313 447.306 84.0334 449.405 86.1369C450.409 87.1427 451.415 88.147 452.422 89.1497C453.83 90.5519 455.23 91.9612 456.63 93.3708C457.427 94.1701 458.225 94.9693 459.047 95.7928C462.413 99.5962 463.291 102.389 463.312 107.437C463.329 108.364 463.346 109.291 463.363 110.246C462.548 116.426 457.994 120.24 453.723 124.367C452.474 125.595 451.226 126.823 449.979 128.051C448.021 129.964 446.062 131.875 444.1 133.784C442.197 135.638 440.303 137.502 438.41 139.367C437.537 140.208 437.537 140.208 436.645 141.066C432.572 145.09 428.518 149.425 427.666 155.307C428.562 161.426 430.783 166.353 433.625 171.812C437.672 179.86 440.944 187.869 443.491 196.515C445.247 202.088 447.035 204.807 452 208C456.902 209.46 462.053 209.153 467.121 209.176C469.128 209.199 471.135 209.223 473.143 209.248C476.294 209.283 479.445 209.313 482.596 209.326C485.646 209.341 488.696 209.382 491.746 209.426C493.153 209.423 493.153 209.423 494.588 209.42C500.2 209.525 503.654 210.104 508 214C511.568 218.515 512.503 221.468 512.518 227.195C512.528 228.236 512.528 228.236 512.539 229.297C512.556 231.573 512.545 233.848 512.531 236.125C512.534 237.716 512.538 239.308 512.543 240.899C512.549 244.228 512.54 247.556 512.521 250.885C512.499 255.142 512.512 259.398 512.536 263.655C512.55 266.939 512.546 270.223 512.535 273.507C512.533 275.076 512.536 276.646 512.545 278.215C512.555 280.412 512.54 282.608 512.518 284.805C512.514 286.052 512.511 287.3 512.508 288.585C511.73 293.813 509.256 296.874 505.386 300.341C500.774 302.6 496.887 302.567 491.816 302.539C490.356 302.557 490.356 302.557 488.866 302.575C485.764 302.61 482.664 302.619 479.562 302.625C476.465 302.641 473.368 302.664 470.27 302.697C468.347 302.716 466.423 302.726 464.5 302.724C458.384 302.772 452.711 302.887 447.69 306.801C445.825 309.228 444.915 311.288 443.957 314.191C443.609 315.21 443.262 316.228 442.904 317.278C442.544 318.362 442.184 319.446 441.812 320.562C438.697 329.671 435.253 338.34 430.656 346.809C428.478 351.026 427.336 354.28 428.28 359.022C431.163 366.942 438.719 372.992 444.562 378.75C445.4 379.587 446.237 380.423 447.1 381.285C451.699 385.865 451.699 385.865 456.633 390.075C460.66 393.35 462.695 396.634 463.352 401.723C463.552 408.494 462.511 412.183 457.92 417.334C457.121 418.134 456.323 418.934 455.5 419.759C454.592 420.673 453.685 421.587 452.749 422.529C451.761 423.513 450.773 424.497 449.785 425.48C448.767 426.5 447.75 427.519 446.733 428.539C444.605 430.669 442.474 432.796 440.34 434.921C437.608 437.641 434.886 440.37 432.166 443.102C430.069 445.206 427.967 447.306 425.863 449.405C424.857 450.409 423.853 451.415 422.85 452.422C421.448 453.83 420.039 455.23 418.629 456.63C417.83 457.427 417.031 458.225 416.207 459.047C412.445 462.376 409.62 463.305 404.625 463.375C403.71 463.403 402.795 463.432 401.852 463.461C395.466 462.429 391.067 457.316 386.754 452.844C385.575 451.644 384.396 450.445 383.217 449.246C381.387 447.372 379.559 445.496 377.734 443.618C375.956 441.791 374.168 439.973 372.379 438.156C371.843 437.599 371.308 437.041 370.756 436.467C366.794 432.455 362.476 428.504 356.693 427.665C350.574 428.562 345.647 430.783 340.187 433.625C332.14 437.672 324.131 440.944 315.485 443.491C309.912 445.247 307.193 447.035 304 452C302.54 456.902 302.847 462.053 302.824 467.121C302.801 469.128 302.777 471.135 302.752 473.143C302.717 476.294 302.687 479.445 302.674 482.596C302.659 485.646 302.618 488.696 302.574 491.746C302.576 492.684 302.578 493.621 302.58 494.587C302.475 500.2 301.896 503.654 298 508C293.485 511.568 290.532 512.503 284.805 512.518C283.764 512.528 283.764 512.528 282.703 512.539C280.427 512.556 278.151 512.545 275.875 512.531C274.284 512.534 272.692 512.538 271.101 512.543C267.772 512.549 264.444 512.54 261.115 512.521C256.858 512.499 252.602 512.512 248.345 512.536C245.061 512.55 241.777 512.546 238.493 512.535C236.924 512.533 235.354 512.536 233.785 512.545C231.588 512.555 229.392 512.54 227.195 512.518C225.324 512.513 225.324 512.513 223.415 512.508C218.187 511.73 215.126 509.256 211.659 505.386C209.4 500.774 209.433 496.887 209.461 491.816C209.449 490.843 209.437 489.869 209.425 488.866C209.39 485.764 209.381 482.664 209.375 479.562C209.359 476.465 209.336 473.367 209.303 470.27C209.284 468.347 209.274 466.423 209.276 464.5C209.229 458.472 208.993 452.923 205.492 447.789C201.699 445.066 197.531 443.838 193.125 442.375C183.896 439.205 175.117 435.474 166.411 431.062C161.805 428.833 158.039 427.158 152.905 428.275C143.667 431.792 136.509 441.334 129.75 448.25C127.438 450.615 125.12 452.974 122.797 455.328C122.274 455.868 121.751 456.407 121.212 456.963C117.798 460.423 115.258 462.741 110.379 463.301C109.449 463.305 108.52 463.308 107.562 463.312C106.636 463.329 105.709 463.346 104.754 463.363C99.3872 462.655 95.9578 459.209 92.2414 455.5C90.8703 454.138 90.8703 454.138 89.4714 452.749C88.4872 451.761 87.5032 450.773 86.5195 449.785C85.5004 448.767 84.481 447.75 83.4613 446.733C81.3307 444.605 79.2038 442.474 77.0793 440.34C74.3591 437.608 71.63 434.886 68.8982 432.166C66.7936 430.069 64.6938 427.967 62.5954 425.863C61.591 424.857 60.5851 423.853 59.5776 422.85C58.1704 421.448 56.7702 420.039 55.3704 418.629C54.1739 417.43 54.1739 417.43 52.9532 416.207C49.5874 412.404 48.7085 409.611 48.6875 404.562C48.6707 403.636 48.654 402.709 48.6367 401.754C49.4522 395.572 53.9953 391.782 58.2773 387.668C59.5257 386.445 60.7737 385.222 62.0215 383.998C63.9772 382.092 65.9359 380.189 67.9001 378.292C69.8057 376.447 71.6983 374.59 73.5898 372.73C74.4635 371.897 74.4635 371.897 75.3547 371.047C80.2805 366.182 83.9678 361.206 84.0391 354.109C83.0679 349.11 80.6903 344.742 78.375 340.25C74.3381 332.182 71.0598 324.144 68.5093 315.485C66.7534 309.912 64.9647 307.193 60 304C55.0983 302.54 49.9467 302.847 44.8789 302.824C42.8717 302.801 40.8646 302.777 38.8574 302.752C35.7062 302.717 32.5554 302.687 29.404 302.674C26.3535 302.659 23.3041 302.618 20.2539 302.574C18.8474 302.577 18.8474 302.577 17.4125 302.58C11.7999 302.475 8.34552 301.896 3.99999 298C0.432198 293.485 -0.502977 290.532 -0.517585 284.805C-0.528099 283.764 -0.528099 283.764 -0.538826 282.703C-0.556331 280.427 -0.544811 278.151 -0.531257 275.875C-0.533954 274.284 -0.537839 272.692 -0.542854 271.101C-0.548739 267.772 -0.540219 264.444 -0.521492 261.115C-0.498702 256.858 -0.511823 252.602 -0.535774 248.345C-0.55026 245.061 -0.545621 241.777 -0.53527 238.493C-0.532611 236.924 -0.535846 235.354 -0.545189 233.785C-0.555401 231.588 -0.539791 229.392 -0.517585 227.195C-0.514403 225.948 -0.511221 224.7 -0.507942 223.415C0.269656 218.187 2.74358 215.126 6.61352 211.659C11.226 209.4 15.1126 209.433 20.1836 209.461C21.6442 209.443 21.6442 209.443 23.1343 209.425C26.2355 209.39 29.3361 209.381 32.4375 209.375C35.5351 209.359 38.6325 209.336 41.73 209.303C43.6532 209.284 45.5765 209.274 47.4999 209.276C53.5278 209.229 59.077 208.993 64.2109 205.492C66.9339 201.699 68.1621 197.531 69.625 193.125C72.7946 183.896 76.5261 175.117 80.938 166.411C83.1667 161.805 84.8448 158.037 83.7231 152.903C80.1321 143.455 70.2541 136.1 63.1875 129.187C60.7169 126.77 58.253 124.346 55.793 121.918C55.2264 121.368 54.6597 120.818 54.076 120.251C49.8676 116.096 48.8458 113.456 48.75 107.625C48.7113 106.221 48.7113 106.221 48.6719 104.789C49.3131 99.3383 52.8542 95.8943 56.6074 92.1338C57.0615 91.6762 57.5155 91.2187 57.9833 90.7473C59.4735 89.2483 60.9708 87.7568 62.4687 86.2656C63.5113 85.2217 64.5536 84.1775 65.5956 83.133C67.7745 80.9511 69.957 78.7729 72.1421 76.5971C74.9433 73.8074 77.7354 71.0086 80.5249 68.2072C82.6728 66.052 84.8255 63.9017 86.9796 61.7527C88.0113 60.7223 89.0416 59.6905 90.0703 58.6571C91.5062 57.2161 92.9492 55.7822 94.3926 54.3486C95.2118 53.531 96.031 52.7133 96.8751 51.8709C100.198 48.9448 103.1 48.8202 107.375 48.75C108.311 48.7242 109.247 48.6984 110.211 48.6719C116.416 49.4019 120.238 54.0034 124.367 58.2773C125.595 59.5255 126.823 60.7735 128.051 62.0215C129.964 63.9785 131.875 65.9379 133.784 67.9001C135.638 69.8033 137.502 71.6969 139.367 73.5898C139.928 74.1722 140.488 74.7546 141.066 75.3547C145.09 79.4282 149.425 83.4818 155.307 84.3344C161.426 83.4382 166.353 81.2167 171.812 78.375C179.86 74.3281 187.869 71.0556 196.515 68.5093C202.088 66.7532 204.807 64.9646 208 60C209.46 55.0983 209.153 49.9467 209.176 44.8789C209.199 42.8717 209.223 40.8645 209.248 38.8574C209.283 35.7062 209.313 32.5554 209.326 29.404C209.341 26.3535 209.382 23.3041 209.426 20.2539C209.424 19.3162 209.422 18.3785 209.42 17.4125C209.525 11.7998 210.104 8.3455 214 3.99998C218.515 0.432183 221.468 -0.502992 227.195 -0.517601Z" fill="#FF5A1F"/>
<g clip-path="url(#clip1_128_2)">
<path d="M258.155 131.122C258.907 131.173 259.66 131.224 260.435 131.276C264.54 132.283 267.282 133.968 269.63 137.467C270.987 139.935 272.246 142.435 273.481 144.967C273.952 145.901 274.423 146.835 274.907 147.798C275.895 149.76 276.877 151.725 277.853 153.692C279.687 157.375 281.565 161.034 283.445 164.693C285.74 169.162 288.016 173.641 290.294 178.118C290.772 179.056 291.25 179.994 291.743 180.961C297.489 192.242 303.206 203.536 308.827 214.881C311.385 220.031 314.022 225.133 316.715 230.214C346.911 287.446 346.911 287.446 337.367 319.733C332.748 334.238 325.636 345.741 315 356.53C314.466 357.13 313.933 357.731 313.384 358.349C305.956 366.546 295.153 372.285 284.804 375.787C283.913 376.099 283.913 376.099 283.003 376.417C265.84 382.263 247.089 382.686 229.904 376.703C228.944 376.371 227.984 376.039 226.995 375.697C215.81 371.402 206.429 364.847 197.879 356.53C197.252 355.968 196.624 355.407 195.978 354.828C182.338 342.208 174.091 322.41 173.059 304.04C172.256 279.806 179.792 262.233 190.514 240.89C191.753 238.424 192.985 235.956 194.217 233.487C198.533 224.853 202.937 216.274 207.446 207.74C210.631 201.7 213.699 195.607 216.722 189.484C221.155 180.508 225.635 171.562 230.361 162.736C232.299 159.102 234.143 155.445 235.898 151.719C236.489 150.479 236.489 150.479 237.093 149.215C237.838 147.645 238.57 146.067 239.284 144.483C241.843 139.118 245.047 135.176 250.034 131.867C252.862 130.942 255.192 130.877 258.155 131.122Z" fill="#FFE7E7"/>
</g>
<g clip-path="url(#clip2_128_2)">
<path d="M251.845 131.122C251.093 131.173 250.34 131.224 249.565 131.276C245.46 132.283 242.718 133.968 240.37 137.467C239.013 139.935 237.754 142.435 236.519 144.967C236.048 145.901 235.577 146.835 235.093 147.798C234.105 149.76 233.123 151.725 232.147 153.692C230.313 157.375 228.435 161.034 226.555 164.693C224.26 169.162 221.984 173.641 219.706 178.118C219.228 179.056 218.75 179.994 218.257 180.961C212.511 192.242 206.794 203.536 201.173 214.881C198.615 220.031 195.978 225.133 193.285 230.214C163.089 287.446 163.089 287.446 172.633 319.733C177.252 334.238 184.364 345.741 195 356.53C195.534 357.13 196.067 357.731 196.616 358.349C204.044 366.546 214.847 372.285 225.196 375.787C226.087 376.099 226.087 376.099 226.997 376.417C244.16 382.263 262.911 382.686 280.096 376.703C281.056 376.371 282.016 376.039 283.005 375.697C294.19 371.402 303.571 364.847 312.121 356.53C312.748 355.968 313.376 355.407 314.022 354.828C327.662 342.208 335.909 322.41 336.941 304.04C337.744 279.806 330.208 262.233 319.486 240.89C318.247 238.424 317.015 235.956 315.783 233.487C311.467 224.853 307.063 216.274 302.554 207.74C299.369 201.7 296.301 195.607 293.278 189.484C288.845 180.508 284.365 171.562 279.639 162.736C277.701 159.102 275.857 155.445 274.102 151.719C273.511 150.479 273.511 150.479 272.907 149.215C272.162 147.645 271.43 146.067 270.716 144.483C268.157 139.118 264.953 135.176 259.966 131.867C257.138 130.942 254.808 130.877 251.845 131.122Z" fill="#FFE7E7"/>
</g>
</g>
<defs>
<clipPath id="clip0_128_2">
<rect width="512" height="512" fill="white"/>
</clipPath>
<clipPath id="clip1_128_2">
<rect width="84" height="250" fill="white" transform="translate(173 131)"/>
</clipPath>
<clipPath id="clip2_128_2">
<rect width="84" height="250" fill="white" transform="matrix(-1 0 0 1 338 131)"/>
</clipPath>
</defs>
</svg>
